<svg xmlns="http://www.w3.org/2000/svg" xmlns:xlink="http://www.w3.org/1999/xlink" width="861" height="615" viewBox="0 0 861 615">
  <defs>
    <style>
      .cls-1 {
        clip-path: url(#clip-Build_New);
      }

      .cls-2 {
        fill: #a0616a;
      }

      .cls-3 {
        fill: #d0cde1;
      }

      .cls-4 {
        fill: #2f2e41;
      }

      .cls-5 {
        fill: #ffb4a2;
      }

      .cls-6 {
        fill: #3f3d56;
      }

      .cls-7 {
        fill: none;
        stroke: #d0cde1;
        stroke-miterlimit: 10;
        stroke-width: 2px;
      }

      .cls-8 {
        fill: #e5989b;
      }
    </style>
    <clipPath id="clip-Build_New">
      <rect width="861" height="615"/>
    </clipPath>
  </defs>
  <g id="Build_New" data-name="Build New" class="cls-1">
    <g id="undraw_dev_productivity_umsq" transform="translate(115.891 36.734)">
      <circle id="Ellipse_15" data-name="Ellipse 15" class="cls-2" cx="57.846" cy="57.846" r="57.846" transform="translate(285.067 35.296)"/>
      <path id="Path_121" data-name="Path 121" class="cls-2" d="M579.682,260.562s10.9,82.159-5.868,91.381S673.578,362,673.578,362s-25.989-71.261-14.252-93.058Z" transform="translate(-279.945 -138.497)"/>
      <path id="Path_122" data-name="Path 122" class="cls-3" d="M737.63,378.31l-9.691,44.13-20.492,93.366-.614,5.113-7.072,59.195-4.7,39.324L691.9,645.854c-19.178,9.857-33.078,16.661-33.078,16.661s-1.2-5.994-3.123-13.664c-13.459,4.036-38.364,10.73-59.469,12.067,7.685,8.567,11.218,16.614,6.427,22.553-14.458,17.9-74.149-19.6-95.026-33.59A56.539,56.539,0,0,0,507.081,660L491.1,647.711l1.581-28.272,2.667-47.836,3.351-59.989a62.968,62.968,0,0,1-2.651-7.89c-4.893-17.4-10.832-52.146-15.387-81.284-3.666-23.45-6.419-43.265-7-47.481-.079-.551-.118-.834-.118-.834l88.442-39.08C568.274,349.621,597.624,354,597.624,354c24.315-1.676,43.376-14.5,43.376-14.5Z" transform="translate(-258.904 -154.388)"/>
      <path id="Path_123" data-name="Path 123" class="cls-2" d="M688.851,722.72s-3.744,1.282-9.833,3.1c-13.459,4.035-38.365,10.73-59.47,12.067-18.171,1.164-33.527-1.636-36.335-13.491-1.2-5.1.5-9.29,4.224-12.736,11.107-10.3,40.119-13.986,63.128-15.253,6.5-.354,12.508-.519,17.511-.582,8.5-.11,14.065.063,14.065.063l.134.519Z" transform="translate(-282.221 -231.357)"/>
      <path id="Path_124" data-name="Path 124" class="cls-4" d="M571.28,143.813l-10.816-4.33s22.615-24.9,54.08-22.733l-8.85-9.743s21.632-8.66,41.3,14.073c10.338,11.95,22.3,26,29.755,41.82h11.583l-4.834,10.645,16.92,10.645-17.367-1.912a59.482,59.482,0,0,1,.471,17.656,22.844,22.844,0,0,1-8.365,14.945h0s-13.414-27.765-13.414-32.1v10.825s-10.816-9.742-10.816-16.238l-5.9,7.577-2.95-11.908-36.381,11.908,5.9-9.743-22.615,3.248,8.85-11.908s-25.565,14.073-26.548,25.98-8.466,23.191-8.466,23.191S542.765,160.051,571.28,143.813Z" transform="translate(-276.489 -105.389)"/>
      <path id="Path_125" data-name="Path 125" class="cls-3" d="M845.984,592.927c-5.892,6.387-20.492,16.008-38.191,26.423-6.584,3.87-13.593,7.858-20.744,11.823-17.062,9.463-34.927,18.84-49.668,26.415C718.2,667.446,704.3,674.25,704.3,674.25s-1.2-5.994-3.123-13.664c-2.581-10.266-6.466-23.536-10.518-29.413-.142-.2-.283-.393-.425-.582-1.18-1.55-2.368-2.454-3.54-2.454l58.542-36.288,25.3-15.686-18.226-43.509-22.86-54.577,13.8-43.9,13.868-44.131h25.99s8.606,18.785,19.611,44.98c1.644,3.917,3.343,8,5.074,12.216C830.432,502.306,858.656,579.2,845.984,592.927Z" transform="translate(-304.382 -166.123)"/>
      <path id="Path_126" data-name="Path 126" class="cls-2" d="M609.936,758.421c-14.458,17.9-74.149-19.6-95.026-33.59-4.547-3.044-7.253-4.972-7.253-4.972l19.1-25.471,6.049-8.063s5.412,2.871,13.412,7.544c.291.173.582.346.881.519,6.9,4.051,15.559,9.345,24.3,15.253,12.059,8.157,24.252,17.463,32.111,26.227C611.195,744.434,614.727,752.481,609.936,758.421Z" transform="translate(-266.182 -229.338)"/>
      <path id="Path_127" data-name="Path 127" class="cls-3" d="M519.236,629.746a37.556,37.556,0,0,0-6.372.519c-18.085,3.107-23.418,19.477-24.936,30.443a56.493,56.493,0,0,0-.551,10.116L471.4,658.537l-5.821-4.476c-14.01-4.885-26.494-13.562-37.318-23.8a187.611,187.611,0,0,1-25.133-29.806,262.824,262.824,0,0,1-19.446-33.354,24.53,24.53,0,0,1-.338-20.807l19.784-44.091,28.917-64.442q.318-2.3.7-4.5c5.735-32.882,21.1-47.482,21.1-47.482h11.737l7.851,47.482,9.754,58.99-6.836,22.293-15.8,51.486,15.1,16.394Z" transform="translate(-239.199 -165.214)"/>
      <path id="Path_128" data-name="Path 128" class="cls-5" d="M566.372,513.437l10.033,11.706c3.728-.711,7.621-1.546,11.63-2.484l-2.882-9.222,7.046,8.221c42.476-10.447,95.126-30.759,95.126-30.759s-56.841,4.168-99.281-5.1c-18.777-4.1-38.1,5.206-45.8,22.814-4.479,10.235-3.775,19.1,12.109,19.1a104.934,104.934,0,0,0,16.01-1.506Z" transform="translate(-273.053 -186.347)"/>
      <path id="Path_129" data-name="Path 129" class="cls-6" d="M763.33,762.187v4.775a10.5,10.5,0,0,1-.716,3.831,10.755,10.755,0,0,1-.763,1.573,10.57,10.57,0,0,1-9.086,5.16H401.491a10.57,10.57,0,0,1-9.085-5.16,10.768,10.768,0,0,1-.763-1.573,10.5,10.5,0,0,1-.716-3.831v-4.775a10.561,10.561,0,0,1,10.564-10.564H421.74V749.4a.44.44,0,0,1,.44-.441h10.564a.44.44,0,0,1,.441.441v2.226h6.6V749.4a.44.44,0,0,1,.441-.441H450.79a.44.44,0,0,1,.441.441v2.226h6.608V749.4a.44.44,0,0,1,.441-.441h10.565a.44.44,0,0,1,.441.441v2.226h6.6V749.4a.44.44,0,0,1,.441-.441h10.565a.44.44,0,0,1,.441.441v2.226h6.6V749.4a.44.44,0,0,1,.441-.441h10.565a.44.44,0,0,1,.441.441v2.226h6.608V749.4a.44.44,0,0,1,.441-.441h10.565a.44.44,0,0,1,.441.441v2.226h6.6V749.4a.44.44,0,0,1,.441-.441h82.755a.44.44,0,0,1,.44.441v2.226h6.608V749.4a.44.44,0,0,1,.441-.441h10.565a.445.445,0,0,1,.441.441v2.226h6.6V749.4a.44.44,0,0,1,.441-.441h10.565a.44.44,0,0,1,.441.441v2.226h6.6V749.4a.44.44,0,0,1,.441-.441h10.565a.44.44,0,0,1,.44.441v2.226h6.608V749.4a.44.44,0,0,1,.441-.441h10.564a.438.438,0,0,1,.433.441v2.226h6.608V749.4a.44.44,0,0,1,.44-.441h10.565a.44.44,0,0,1,.44.441v2.226h6.6V749.4a.44.44,0,0,1,.44-.441h10.564a.44.44,0,0,1,.441.441v2.226h30.813A10.562,10.562,0,0,1,763.33,762.187Z" transform="translate(-241.276 -242.7)"/>
      <rect id="Rectangle_28" data-name="Rectangle 28" class="cls-6" width="576.607" height="1.573" transform="translate(47.592 528.092)"/>
      <path id="Path_130" data-name="Path 130" class="cls-6" d="M738.705,509.413H607.775v-2.7H548.405v2.7H416.935a8.856,8.856,0,0,0-8.857,8.856V697.554a8.857,8.857,0,0,0,8.857,8.857h321.77a8.857,8.857,0,0,0,8.856-8.857V518.27a8.856,8.856,0,0,0-8.857-8.857Z" transform="translate(-244.935 -191.016)"/>
      <circle id="Ellipse_16" data-name="Ellipse 16" class="cls-7" cx="19.666" cy="19.666" r="19.666" transform="translate(313.476 361.324)"/>
      <circle id="Ellipse_17" data-name="Ellipse 17" class="cls-3" cx="19.666" cy="19.666" r="19.666" transform="translate(307.183 368.404)"/>
      <rect id="Rectangle_29" data-name="Rectangle 29" class="cls-3" width="22.026" height="22.026" transform="translate(63.282 520.144)"/>
      <path id="Path_131" data-name="Path 131" class="cls-6" d="M292.136,744.612v26.746h26.746V744.612Zm25.582,25.581H293.292V745.776h24.425Z" transform="translate(-220.198 -241.774)"/>
      <rect id="Rectangle_30" data-name="Rectangle 30" class="cls-3" width="22.026" height="22.026" transform="translate(573.025 520.144)"/>
      <path id="Path_132" data-name="Path 132" class="cls-6" d="M940.136,744.612v26.746h26.746V744.612Zm25.581,25.581H941.292V745.776h24.425Z" transform="translate(-358.455 -241.774)"/>
      <circle id="Ellipse_18" data-name="Ellipse 18" class="cls-5" cx="62.412" cy="62.412" r="62.412" transform="translate(11.988 56.192)"/>
      <path id="Path_133" data-name="Path 133" class="cls-6" d="M302.653,161.733a67.454,67.454,0,0,0-17.022,0,66.367,66.367,0,0,0-54.762,46.185,65.472,65.472,0,0,0-2.875,17.041c-.028.8-.047,1.617-.047,2.43a66.261,66.261,0,0,0,66.195,66.195c1.409,0,2.818-.047,4.208-.132a65.475,65.475,0,0,0,9.7-1.343,66.2,66.2,0,0,0-5.4-130.375Zm12.208,126.537h-.009a63.647,63.647,0,0,1-16.5,3.281c-1.39.095-2.8.142-4.208.142a64.383,64.383,0,0,1-64.3-64.3c0-.813.019-1.627.047-2.43a64.3,64.3,0,1,1,84.975,63.311Z" transform="translate(-206.503 -117.295)"/>
      <rect id="Rectangle_31" data-name="Rectangle 31" class="cls-6" width="1.891" height="13.239" transform="translate(86.694 49.572)"/>
      <rect id="Rectangle_32" data-name="Rectangle 32" class="cls-6" width="1.891" height="13.239" transform="translate(44.177 67.967) rotate(-45)"/>
      <rect id="Rectangle_33" data-name="Rectangle 33" class="cls-6" width="1.891" height="13.239" transform="translate(27.119 111.039) rotate(-90)"/>
      <rect id="Rectangle_34" data-name="Rectangle 34" class="cls-6" width="1.891" height="13.239" transform="translate(45.513 153.556) rotate(-135)"/>
      <rect id="Rectangle_35" data-name="Rectangle 35" class="cls-6" width="1.891" height="13.239" transform="translate(121.741 77.327) rotate(-135)"/>
      <rect id="Rectangle_36" data-name="Rectangle 36" class="cls-6" width="1.891" height="13.239" transform="translate(134.922 111.039) rotate(-90)"/>
      <rect id="Rectangle_37" data-name="Rectangle 37" class="cls-6" width="1.891" height="13.239" transform="translate(120.406 144.195) rotate(-45)"/>
      <rect id="Rectangle_38" data-name="Rectangle 38" class="cls-6" width="1.891" height="13.239" transform="translate(86.694 157.375)"/>
      <path id="Path_134" data-name="Path 134" class="cls-6" d="M313.651,240.278a4.728,4.728,0,0,0-5.674,0,4.869,4.869,0,0,0-1.352,1.589,4.729,4.729,0,1,0,7.026-1.589Zm-2.837,6.619a2.845,2.845,0,0,1-2.837-2.837,2.889,2.889,0,0,1,.5-1.608,2.834,2.834,0,1,1,2.336,4.444Z" transform="translate(-223.174 -133.967)"/>
      <rect id="Rectangle_39" data-name="Rectangle 39" class="cls-6" width="17.022" height="17.022" transform="translate(79.129 27.822)"/>
      <ellipse id="Ellipse_19" data-name="Ellipse 19" class="cls-6" cx="22.695" cy="8.038" rx="22.695" ry="8.038" transform="translate(64.944 14.583)"/>
      <rect id="Rectangle_40" data-name="Rectangle 40" class="cls-6" width="5.674" height="32.152" transform="translate(84.802 74.159)"/>
      <rect id="Rectangle_41" data-name="Rectangle 41" class="cls-6" width="177.781" height="1.891" transform="translate(0 173.407)"/>
      <path id="Path_135" data-name="Path 135" class="cls-8" d="M333.174,689.92c.734,25.133-13.951,34.344-32.381,34.882q-.642.019-1.279.023-1.282.01-2.539-.043c-16.668-.692-29.861-9.539-30.544-32.913-.706-24.189,29.317-55.618,31.57-57.943l0,0,.129-.133S332.44,664.788,333.174,689.92Z" transform="translate(-214.711 -218.129)"/>
      <path id="Path_136" data-name="Path 136" class="cls-6" d="M304.451,720.993l11.707-17.409-11.683,19.282.024,1.959q-1.282.01-2.539-.043l.581-25.181-.016-.195.021-.038.056-2.379-12.821-18.614,12.806,16.833.045.5.439-19.026L292,657.387,303.1,673.343l-.116-39.416V633.8l0,.129.735,31.065,10.092-12.619-10.059,15.3.22,17.018,9.287-16.609-9.253,19.111.123,9.463,13.506-23.136-13.465,26.438Z" transform="translate(-219.696 -218.13)"/>
      <path id="Path_137" data-name="Path 137" class="cls-8" d="M981.175,689.92c.734,25.133-13.951,34.344-32.381,34.882q-.642.019-1.279.023-1.282.01-2.539-.043c-16.667-.692-29.861-9.539-30.543-32.913-.706-24.189,29.317-55.618,31.57-57.943l0,0,.13-.133S980.441,664.788,981.175,689.92Z" transform="translate(-352.969 -218.129)"/>
      <path id="Path_138" data-name="Path 138" class="cls-6" d="M952.451,720.993l11.707-17.409-11.683,19.282.024,1.959q-1.282.01-2.539-.043l.581-25.181-.016-.195.022-.038.055-2.379-12.82-18.614,12.805,16.833.045.5.439-19.026L940,657.387l11.1,15.956-.116-39.416V633.8l0,.129.735,31.065,10.092-12.619-10.059,15.3.22,17.018,9.287-16.609-9.253,19.111.123,9.463,13.506-23.136-13.465,26.438Z" transform="translate(-357.953 -218.13)"/>
    </g>
  </g>
</svg>
