<svg xmlns="http://www.w3.org/2000/svg" xmlns:xlink="http://www.w3.org/1999/xlink" width="896" height="644" viewBox="0 0 896 644">
  <defs>
    <style>
      .cls-1 {
        clip-path: url(#clip-Contact_Image);
      }

      .cls-2 {
        clip-path: url(#clip-path);
      }

      .cls-14, .cls-3, .cls-6, .cls-7, .cls-8 {
        opacity: 0.1;
      }

      .cls-4 {
        fill: #3f3d56;
      }

      .cls-5, .cls-7 {
        fill: #e5989b;
      }

      .cls-8 {
        fill: #ff638c;
      }

      .cls-14, .cls-9 {
        fill: none;
        stroke-miterlimit: 10;
      }

      .cls-9 {
        stroke: #3f3d56;
        stroke-width: 4px;
      }

      .cls-10 {
        fill: #ffb4a2;
      }

      .cls-11 {
        fill: url(#linear-gradient);
      }

      .cls-12 {
        fill: #be6f72;
      }

      .cls-13 {
        fill: #ff6f61;
      }

      .cls-14 {
        stroke: #000;
      }

      .cls-15 {
        fill: url(#linear-gradient-2);
      }

      .cls-16 {
        fill: #2f2e41;
      }

      .cls-17 {
        fill: #fbbebe;
      }

      .cls-18 {
        fill: #e8e8f0;
      }

      .cls-19 {
        fill: #f86d70;
      }
    </style>
    <clipPath id="clip-path">
      <rect id="Rectangle_65" data-name="Rectangle 65" width="910" height="833" transform="translate(0.265 -0.055)"/>
    </clipPath>
    <linearGradient id="linear-gradient" x1="0.5" y1="1" x2="0.5" gradientUnits="objectBoundingBox">
      <stop offset="0" stop-color="gray" stop-opacity="0.251"/>
      <stop offset="0.54" stop-color="gray" stop-opacity="0.122"/>
      <stop offset="1" stop-color="gray" stop-opacity="0.102"/>
    </linearGradient>
    <linearGradient id="linear-gradient-2" y2="-0.001" xlink:href="#linear-gradient"/>
    <clipPath id="clip-Contact_Image">
      <rect width="896" height="644"/>
    </clipPath>
  </defs>
  <g id="Contact_Image" data-name="Contact Image" class="cls-1">
    <g id="Contact_Image-2" data-name="Contact Image" class="cls-2" transform="translate(-0.265 -101.945)">
      <g id="undraw_contact_us_15o2" transform="translate(64.854 200.758)">
        <g id="Group_1" data-name="Group 1" class="cls-3" transform="translate(302.886 30.137)">
          <ellipse id="Ellipse_23" data-name="Ellipse 23" class="cls-4" cx="8.108" cy="11.227" rx="8.108" ry="11.227" transform="translate(30.56 231.729)"/>
          <path id="Path_25" data-name="Path 25" class="cls-4" d="M534.555,455.08a14.171,14.171,0,0,0,1.7-6.863c0-6.2-3.642-11.227-8.114-11.227S520,442.03,520,448.23a14.172,14.172,0,0,0,1.7,6.863,14.728,14.728,0,0,0,0,13.719,14.728,14.728,0,0,0,0,13.719,14.137,14.137,0,0,0-1.7,6.863c0,6.192,3.642,11.227,8.108,11.227s8.114-5.033,8.114-11.227a14.134,14.134,0,0,0-1.7-6.863,14.728,14.728,0,0,0,0-13.719,14.728,14.728,0,0,0,0-13.719Z" transform="translate(-489.469 -260.153)"/>
          <ellipse id="Ellipse_24" data-name="Ellipse 24" class="cls-4" cx="8.108" cy="11.227" rx="8.108" ry="11.227" transform="translate(30.56 163.132)"/>
          <ellipse id="Ellipse_25" data-name="Ellipse 25" class="cls-4" cx="8.108" cy="11.227" rx="8.108" ry="11.227" transform="translate(30.56 149.412)"/>
          <path id="Path_26" data-name="Path 26" class="cls-5" d="M485.464,269.013a40.192,40.192,0,0,1-3.021-4.7l21.3-3.7-23.04.181a43.326,43.326,0,0,1-.712-32.548l30.912,16.96-28.5-22.165c7.224-13.423,20.958-21.436,35.551-20.728s27.575,10.015,33.6,24.085a43.009,43.009,0,0,1-5.036,42.6,41.5,41.5,0,0,1,4.431,7.49l-27.664,15.234,29.487-10.464a42.983,42.983,0,0,1-6.262,38.574c12.527,16.839,10.71,41.031-4.172,55.569a37.306,37.306,0,0,1-52.712,0c-14.882-14.538-16.7-38.73-4.172-55.569a42.947,42.947,0,0,1,0-50.8Z" transform="translate(-477.148 -202.272)"/>
          <path id="Path_27" data-name="Path 27" class="cls-6" d="M554.833,324.372a42.4,42.4,0,0,1-8.314,25.4c12.527,16.839,10.71,41.031-4.172,55.569a37.306,37.306,0,0,1-52.712,0c-14.882-14.538-16.7-38.73-4.172-55.569C480.257,342.777,554.833,319.76,554.833,324.372Z" transform="translate(-477.146 -232.232)"/>
        </g>
        <g id="Group_2" data-name="Group 2" class="cls-3" transform="translate(407.307 67.696)">
          <ellipse id="Ellipse_26" data-name="Ellipse 26" class="cls-4" cx="6.062" cy="8.384" rx="6.062" ry="8.384" transform="translate(22.838 173.007)"/>
          <path id="Path_28" data-name="Path 28" class="cls-4" d="M666.621,440.836a10.574,10.574,0,0,0,1.261-5.124c0-4.634-2.713-8.392-6.056-8.392s-6.07,3.766-6.07,8.392a10.5,10.5,0,0,0,1.269,5.124,11,11,0,0,0,0,10.254,11,11,0,0,0,0,10.254,10.5,10.5,0,0,0-1.269,5.124c0,4.634,2.713,8.392,6.07,8.392s6.056-3.766,6.056-8.392a10.572,10.572,0,0,0-1.261-5.124,11.082,11.082,0,0,0,0-10.254,11.082,11.082,0,0,0,0-10.254Z" transform="translate(-632.936 -295.329)"/>
          <ellipse id="Ellipse_27" data-name="Ellipse 27" class="cls-4" cx="6.062" cy="8.384" rx="6.062" ry="8.384" transform="translate(22.838 121.745)"/>
          <ellipse id="Ellipse_28" data-name="Ellipse 28" class="cls-4" cx="6.062" cy="8.384" rx="6.062" ry="8.384" transform="translate(22.838 111.491)"/>
          <path id="Path_29" data-name="Path 29" class="cls-5" d="M629.934,301.824a29.52,29.52,0,0,1-2.258-3.5l15.922-2.764-17.219.136a32.4,32.4,0,0,1-.554-24.346l23.1,12.68-21.308-16.571a28.7,28.7,0,0,1,26.537-15.331,29.066,29.066,0,0,1,25.034,17.94,32.147,32.147,0,0,1-3.632,31.748,31.362,31.362,0,0,1,3.312,5.6l-20.661,11.353,22.035-7.82a32.13,32.13,0,0,1-4.68,28.824,31.975,31.975,0,0,1-3.1,41.537,27.868,27.868,0,0,1-39.4,0,31.975,31.975,0,0,1-3.1-41.537,32.092,32.092,0,0,1,0-37.956Z" transform="translate(-623.718 -252.112)"/>
          <path id="Path_30" data-name="Path 30" class="cls-6" d="M681.777,343.153a31.7,31.7,0,0,1-6.212,18.979,31.975,31.975,0,0,1-3.1,41.537,27.868,27.868,0,0,1-39.4,0,31.975,31.975,0,0,1-3.1-41.537C626.065,356.9,681.777,339.709,681.777,343.153Z" transform="translate(-623.726 -274.461)"/>
        </g>
        <g id="Group_3" data-name="Group 3" class="cls-3" transform="translate(700.693 0)">
          <ellipse id="Ellipse_29" data-name="Ellipse 29" class="cls-4" cx="8.108" cy="11.227" rx="8.108" ry="11.227" transform="translate(31.114 231.729)"/>
          <path id="Path_31" data-name="Path 31" class="cls-4" d="M1080.888,415.079a14.175,14.175,0,0,1-1.7-6.863c0-6.2,3.642-11.225,8.114-11.225s8.108,5.025,8.108,11.225a14.174,14.174,0,0,1-1.7,6.863,14.729,14.729,0,0,1,0,13.719,14.728,14.728,0,0,1,0,13.719,14.133,14.133,0,0,1,1.7,6.863c0,6.192-3.642,11.227-8.108,11.227s-8.114-5.033-8.114-11.227a14.121,14.121,0,0,1,1.7-6.863,14.726,14.726,0,0,1,0-13.719A14.726,14.726,0,0,1,1080.888,415.079Z" transform="translate(-1048.08 -220.152)"/>
          <ellipse id="Ellipse_30" data-name="Ellipse 30" class="cls-4" cx="8.108" cy="11.227" rx="8.108" ry="11.227" transform="translate(31.114 163.132)"/>
          <ellipse id="Ellipse_31" data-name="Ellipse 31" class="cls-4" cx="8.108" cy="11.227" rx="8.108" ry="11.227" transform="translate(31.114 149.412)"/>
          <path id="Path_32" data-name="Path 32" class="cls-5" d="M1105.109,229.013a40.193,40.193,0,0,0,3.021-4.7l-21.3-3.7,23.04.181a43.327,43.327,0,0,0,.712-32.548l-30.911,16.96,28.5-22.165c-7.224-13.423-20.958-21.436-35.551-20.728s-27.575,10.015-33.6,24.085a43.01,43.01,0,0,0,5.036,42.6,41.525,41.525,0,0,0-4.431,7.49l27.664,15.234-29.487-10.464a42.985,42.985,0,0,0,6.262,38.574c-12.527,16.839-10.71,41.031,4.172,55.569a37.306,37.306,0,0,0,52.712,0c14.882-14.538,16.7-38.73,4.172-55.569a42.945,42.945,0,0,0,0-50.8Z" transform="translate(-1035.536 -162.272)"/>
          <path id="Path_33" data-name="Path 33" class="cls-6" d="M1035.811,284.372a42.4,42.4,0,0,0,8.314,25.4c-12.527,16.839-10.709,41.031,4.172,55.569a37.306,37.306,0,0,0,52.712,0c14.882-14.538,16.7-38.73,4.172-55.569C1110.393,302.777,1035.811,279.76,1035.811,284.372Z" transform="translate(-1035.608 -192.232)"/>
        </g>
        <g id="Group_4" data-name="Group 4" class="cls-3" transform="translate(632.459 63.175)">
          <ellipse id="Ellipse_32" data-name="Ellipse 32" class="cls-4" cx="6.062" cy="8.384" rx="6.062" ry="8.384" transform="translate(23.127 173.007)"/>
          <path id="Path_34" data-name="Path 34" class="cls-4" d="M973.491,434.836a10.576,10.576,0,0,1-1.261-5.124c0-4.634,2.714-8.392,6.056-8.392s6.07,3.766,6.07,8.392a10.494,10.494,0,0,1-1.269,5.124,11,11,0,0,1,0,10.254,11,11,0,0,1,0,10.254,10.5,10.5,0,0,1,1.269,5.124c0,4.634-2.714,8.392-6.07,8.392s-6.056-3.766-6.056-8.392a10.572,10.572,0,0,1,1.26-5.124,11.083,11.083,0,0,1,0-10.254,11.082,11.082,0,0,1,0-10.254Z" transform="translate(-949.089 -289.329)"/>
          <ellipse id="Ellipse_33" data-name="Ellipse 33" class="cls-4" cx="6.062" cy="8.384" rx="6.062" ry="8.384" transform="translate(23.127 121.745)"/>
          <ellipse id="Ellipse_34" data-name="Ellipse 34" class="cls-4" cx="6.062" cy="8.384" rx="6.062" ry="8.384" transform="translate(23.127 111.493)"/>
          <path id="Path_35" data-name="Path 35" class="cls-5" d="M991.627,295.824a29.523,29.523,0,0,0,2.258-3.5l-15.922-2.764,17.219.136a32.4,32.4,0,0,0,.556-24.346l-23.111,12.69,21.316-16.58a28.7,28.7,0,0,0-26.537-15.331,29.066,29.066,0,0,0-25.034,17.94A32.146,32.146,0,0,0,946,295.814a31.338,31.338,0,0,0-3.313,5.6l20.661,11.353-21.992-7.813a32.13,32.13,0,0,0,4.68,28.824,31.975,31.975,0,0,0,3.1,41.537,27.867,27.867,0,0,0,39.4,0,31.975,31.975,0,0,0,3.1-41.537,32.091,32.091,0,0,0,0-37.956Z" transform="translate(-939.753 -246.112)"/>
          <path id="Path_36" data-name="Path 36" class="cls-6" d="M939.8,337.153a31.7,31.7,0,0,0,6.212,18.979,31.975,31.975,0,0,0,3.1,41.537,27.867,27.867,0,0,0,39.4,0,31.975,31.975,0,0,0,3.1-41.537C995.508,350.9,939.8,333.709,939.8,337.153Z" transform="translate(-939.76 -268.461)"/>
        </g>
        <g id="Group_5" data-name="Group 5" class="cls-3" transform="translate(5.204 0.125)">
          <ellipse id="Ellipse_35" data-name="Ellipse 35" class="cls-4" cx="8.108" cy="11.227" rx="8.108" ry="11.227" transform="translate(30.568 231.604)"/>
          <path id="Path_37" data-name="Path 37" class="cls-4" d="M116.73,415.079a14.172,14.172,0,0,0,1.7-6.863c0-6.2-3.642-11.225-8.108-11.225s-8.108,5.025-8.108,11.225a14.173,14.173,0,0,0,1.688,6.863,14.774,14.774,0,0,0,0,13.719,14.776,14.776,0,0,0,0,13.719,14.119,14.119,0,0,0-1.688,6.863c0,6.192,3.626,11.227,8.108,11.227s8.128-5.017,8.128-11.211a14.134,14.134,0,0,0-1.7-6.863,14.727,14.727,0,0,0,0-13.719,14.727,14.727,0,0,0,0-13.719Z" transform="translate(-71.642 -220.277)"/>
          <ellipse id="Ellipse_36" data-name="Ellipse 36" class="cls-4" cx="8.108" cy="11.227" rx="8.108" ry="11.227" transform="translate(30.568 163.007)"/>
          <ellipse id="Ellipse_37" data-name="Ellipse 37" class="cls-4" cx="8.108" cy="11.227" rx="8.108" ry="11.227" transform="translate(30.568 149.289)"/>
          <path id="Path_38" data-name="Path 38" class="cls-5" d="M67.64,229.056a41.134,41.134,0,0,1-3.021-4.7l21.308-3.7-23.067.218a43.327,43.327,0,0,1-.712-32.548l30.936,16.958L64.576,183.12c7.24-13.386,20.962-21.356,35.529-20.636s27.518,10.009,33.554,24.05a43,43,0,0,1-4.965,42.545,41.524,41.524,0,0,1,4.431,7.49l-27.67,15.2,29.5-10.464a43.033,43.033,0,0,1-6.273,38.574c12.527,16.839,10.71,41.031-4.172,55.569a37.306,37.306,0,0,1-52.712,0c-14.882-14.538-16.7-38.73-4.172-55.569a42.947,42.947,0,0,1,0-50.8Z" transform="translate(-59.307 -162.439)"/>
          <path id="Path_39" data-name="Path 39" class="cls-7" d="M136.991,284.372a42.4,42.4,0,0,1-8.314,25.4c12.527,16.839,10.71,41.031-4.172,55.569a37.306,37.306,0,0,1-52.712,0c-14.882-14.538-16.7-38.73-4.172-55.569C62.419,302.777,136.991,279.76,136.991,284.372Z" transform="translate(-59.306 -192.357)"/>
        </g>
        <g id="Group_6" data-name="Group 6" class="cls-3" transform="translate(93.239 63.175)">
          <ellipse id="Ellipse_38" data-name="Ellipse 38" class="cls-4" cx="6.062" cy="8.384" rx="6.062" ry="8.384" transform="translate(22.838 173.007)"/>
          <path id="Path_40" data-name="Path 40" class="cls-4" d="M225.8,434.836a10.575,10.575,0,0,0,1.261-5.124c0-4.634-2.707-8.392-6.056-8.392s-6.07,3.766-6.07,8.392a10.573,10.573,0,0,0,1.269,5.124,11,11,0,0,0,0,10.254,11,11,0,0,0,0,10.254,10.574,10.574,0,0,0-1.269,5.124c0,4.634,2.713,8.392,6.07,8.392s6.056-3.766,6.056-8.392a10.576,10.576,0,0,0-1.261-5.124,11.082,11.082,0,0,0,0-10.254,11.082,11.082,0,0,0,0-10.254Z" transform="translate(-192.092 -289.327)"/>
          <ellipse id="Ellipse_39" data-name="Ellipse 39" class="cls-4" cx="6.062" cy="8.384" rx="6.062" ry="8.384" transform="translate(22.838 121.745)"/>
          <ellipse id="Ellipse_40" data-name="Ellipse 40" class="cls-4" cx="6.062" cy="8.384" rx="6.062" ry="8.384" transform="translate(22.838 111.493)"/>
          <path id="Path_41" data-name="Path 41" class="cls-5" d="M189.094,295.824a30.44,30.44,0,0,1-2.258-3.5l15.922-2.764-17.219.136a32.4,32.4,0,0,1-.554-24.346l23.1,12.68-21.308-16.571a28.7,28.7,0,0,1,26.537-15.331,29.066,29.066,0,0,1,25.034,17.94,32.147,32.147,0,0,1-3.632,31.748,30.543,30.543,0,0,1,3.312,5.6l-20.661,11.353,22.035-7.82a32.129,32.129,0,0,1-4.68,28.824,31.975,31.975,0,0,1-3.1,41.537,27.867,27.867,0,0,1-39.4,0,31.975,31.975,0,0,1-3.1-41.537,32.09,32.09,0,0,1,0-37.956Z" transform="translate(-182.878 -246.112)"/>
          <path id="Path_42" data-name="Path 42" class="cls-7" d="M240.937,337.153a31.7,31.7,0,0,1-6.212,18.979,31.975,31.975,0,0,1-3.1,41.537,27.867,27.867,0,0,1-39.4,0,31.975,31.975,0,0,1-3.1-41.537C185.21,350.9,240.937,333.709,240.937,337.153Z" transform="translate(-182.886 -268.459)"/>
        </g>
        <ellipse id="Ellipse_41" data-name="Ellipse 41" class="cls-7" cx="390.411" cy="6.675" rx="390.411" ry="6.675" transform="translate(0 365.12)"/>
        <ellipse id="Ellipse_42" data-name="Ellipse 42" class="cls-7" cx="390.411" cy="6.675" rx="390.411" ry="6.675" transform="translate(0 419.929)"/>
        <ellipse id="Ellipse_43" data-name="Ellipse 43" class="cls-7" cx="390.411" cy="6.675" rx="390.411" ry="6.675" transform="translate(0 250.73)"/>
        <ellipse id="Ellipse_44" data-name="Ellipse 44" class="cls-7" cx="390.411" cy="6.675" rx="390.411" ry="6.675" transform="translate(0 307.921)"/>
        <path id="Path_43" data-name="Path 43" class="cls-8" d="M845.023,267a12.386,12.386,0,0,0-7.551.873,10.6,10.6,0,0,1-9.077,0,12.113,12.113,0,0,0-10.685.218,6.3,6.3,0,0,1-3.071.813c-4.332,0-7.93-4.611-8.678-10.7a8.791,8.791,0,0,0,2.137-2.463c2.535-4.324,6.461-7.1,10.88-7.1s8.3,2.743,10.829,7.021a8.22,8.22,0,0,0,7.2,4.194h.113C840.592,259.8,843.578,262.725,845.023,267Z" transform="translate(-268.819 -183.576)"/>
        <path id="Path_44" data-name="Path 44" class="cls-7" d="M858.2,242.327l-7,4.686,4.275-8.171a6.683,6.683,0,0,0-4.231-1.589h-.113a7.654,7.654,0,0,1-1.416-.113l-2.408,1.589,1.012-1.959a8.465,8.465,0,0,1-4.154-3.33l-4.275,2.848,2.679-5.153a12.193,12.193,0,0,0-9.51-5.077c-4.417,0-8.342,2.772-10.886,7.1a8.026,8.026,0,0,1-7.189,4.1h-.229c-4.872,0-8.82,5.836-8.82,13.034s3.948,13.049,8.82,13.049a6.4,6.4,0,0,0,3.072-.813,12.1,12.1,0,0,1,10.685-.226,10.531,10.531,0,0,0,9.077,0,12.138,12.138,0,0,1,10.587.218,6.337,6.337,0,0,0,3.035.8c4.872,0,8.82-5.846,8.82-13.049a17.289,17.289,0,0,0-1.833-7.937Z" transform="translate(-268.809 -178.003)"/>
        <path id="Path_45" data-name="Path 45" class="cls-8" d="M432.224,263.387a8.691,8.691,0,0,0-5.293.611,7.394,7.394,0,0,1-6.347,0,8.454,8.454,0,0,0-7.472.158,4.511,4.511,0,0,1-2.137.564c-3.035,0-5.55-3.225-6.07-7.482a6.149,6.149,0,0,0,1.517-1.726,8.311,8.311,0,0,1,15.2-.06,5.765,5.765,0,0,0,5.036,2.918h.079C429.118,258.362,431.2,260.41,432.224,263.387Z" transform="translate(-153.48 -184.041)"/>
        <path id="Path_46" data-name="Path 46" class="cls-7" d="M441.452,246.139l-4.895,3.286,2.966-5.727a4.649,4.649,0,0,0-2.956-1.115h-.079a5.048,5.048,0,0,1-1.012-.084l-1.659,1.115.712-1.362a5.959,5.959,0,0,1-2.908-2.334l-2.97,1.988,1.882-3.6a8.551,8.551,0,0,0-6.655-3.564,9.055,9.055,0,0,0-7.624,4.978,5.626,5.626,0,0,1-5.036,2.871h-.164c-3.414,0-6.177,4.085-6.177,9.131s2.764,9.131,6.177,9.131a4.432,4.432,0,0,0,2.137-.572,8.466,8.466,0,0,1,7.466-.15,7.279,7.279,0,0,0,6.356.045,8.492,8.492,0,0,1,7.41.15,4.418,4.418,0,0,0,2.137.558c3.405,0,6.169-4.085,6.169-9.132a12.089,12.089,0,0,0-1.277-5.614Z" transform="translate(-153.482 -180.142)"/>
        <path id="Path_47" data-name="Path 47" class="cls-8" d="M321.59,341.8a8.676,8.676,0,0,1,5.287.611,7.406,7.406,0,0,0,6.355,0,8.482,8.482,0,0,1,7.472.15,4.413,4.413,0,0,0,2.137.572c3.035,0,5.55-3.231,6.07-7.49a6.023,6.023,0,0,1-1.509-1.726,8.319,8.319,0,0,0-15.2-.053,5.767,5.767,0,0,1-5.03,2.918h-.079C324.69,336.8,322.594,338.844,321.59,341.8Z" transform="translate(-129.527 -203.377)"/>
        <path id="Path_48" data-name="Path 48" class="cls-7" d="M308.122,324.577l4.9,3.286-2.978-5.712a4.678,4.678,0,0,1,2.964-1.122h.079a5.746,5.746,0,0,0,1.012-.076l1.659,1.107-.712-1.362a5.954,5.954,0,0,0,2.9-2.335l2.97,1.988-1.851-3.609a8.541,8.541,0,0,1,6.655-3.556,9.065,9.065,0,0,1,7.616,4.972,5.627,5.627,0,0,0,5.03,2.871h.172c3.405,0,6.169,4.085,6.169,9.132s-2.764,9.132-6.169,9.132a4.427,4.427,0,0,1-2.137-.564,8.454,8.454,0,0,0-7.472-.157,7.388,7.388,0,0,1-3.191.753,7.477,7.477,0,0,1-3.163-.708,8.48,8.48,0,0,0-7.4.15,4.416,4.416,0,0,1-2.137.558c-3.414,0-6.178-4.085-6.178-9.132a12.182,12.182,0,0,1,1.263-5.616Z" transform="translate(-125.289 -199.492)"/>
        <path id="Path_49" data-name="Path 49" class="cls-9" d="M713.083,626.633c1.86-3.647-.249-8.106-2.671-11.353s-5.386-6.63-5.322-10.766c.093-5.945,6.07-9.462,10.829-12.612a53.609,53.609,0,0,0,9.725-8.287,15.129,15.129,0,0,0,2.985-4.235,18.042,18.042,0,0,0,.9-7.534q-.307-12.725-1.19-25.436" transform="translate(-239.808 -257.001)"/>
        <path id="Path_50" data-name="Path 50" class="cls-10" d="M743.373,542.943a9.355,9.355,0,0,0-4.38-7.6l-1.967,4.107.065-4.972a8.53,8.53,0,0,0-9.734,3.7,9.707,9.707,0,0,0,.358,10.931,8.483,8.483,0,0,0,9.955,2.969,9.3,9.3,0,0,0,5.706-9.122Z" transform="translate(-245.776 -253.956)"/>
        <path id="Path_51" data-name="Path 51" class="cls-10" d="M721.8,624.774a8.622,8.622,0,0,1-9.644,4.824,9.133,9.133,0,0,1-6.914-8.591,9.507,9.507,0,0,1,.57-3.766,8.614,8.614,0,0,1,16.39.1l-5.479,4.716,6.028-1.508a9.657,9.657,0,0,1-.951,4.227Z" transform="translate(-239.852 -273.014)"/>
        <path id="Path_52" data-name="Path 52" class="cls-10" d="M718.721,599.194a8.9,8.9,0,0,1-9.071-7.781A9.3,9.3,0,0,1,715.942,581l-.051,3.821,1.987-4.159h0a9.333,9.333,0,0,1,6.5,2.58,8.621,8.621,0,0,1,2.672,6.254,9.086,9.086,0,0,1-8.353,9.7Z" transform="translate(-241.101 -265.438)"/>
        <path id="Path_53" data-name="Path 53" class="cls-10" d="M748.581,579.307a8.752,8.752,0,0,1-8.577-5.77,9.646,9.646,0,0,1,2.339-10.462,8.4,8.4,0,0,1,10.117-1.1l-1.546,4.521,3.156-3.307a9.644,9.644,0,0,1,2.319,9.995,8.831,8.831,0,0,1-7.832,6.118Z" transform="translate(-249.667 -260.546)"/>
        <path id="Path_54" data-name="Path 54" class="cls-6" d="M742.183,547.09c-2.023.233-3.99.9-6.028,1.033a6.319,6.319,0,0,1-5.542-2.048,30.253,30.253,0,0,1-1.619-3.013,6.4,6.4,0,0,0-2.207-2.2,9.714,9.714,0,0,0,.894,9.921,8.515,8.515,0,0,0,8.877,3.338,9.042,9.042,0,0,0,6.615-7.093A8.972,8.972,0,0,0,742.183,547.09Z" transform="translate(-245.77 -255.63)"/>
        <path id="Path_55" data-name="Path 55" class="cls-6" d="M748.593,581.05a8.629,8.629,0,0,1-7.711-4.118,9.733,9.733,0,0,1-.631-9.112,6.7,6.7,0,0,1,1.76,1.867,31.846,31.846,0,0,0,1.738,3.066,6.928,6.928,0,0,0,5.821,2.14c2.117-.113,4.16-.753,6.272-.942.291,0,.585-.045.884-.052a8.911,8.911,0,0,1-8.128,7.141Z" transform="translate(-249.679 -262.28)"/>
        <path id="Path_56" data-name="Path 56" class="cls-6" d="M718.7,601a8.621,8.621,0,0,1-7.657-4.041,9.731,9.731,0,0,1-.757-9.015,7.324,7.324,0,0,1,1.859,1.883,31.385,31.385,0,0,0,1.9,3.126,7.684,7.684,0,0,0,6.206,2.26c2.238-.1,4.275-.611,6.412-.753a8.88,8.88,0,0,1-7.964,6.54Z" transform="translate(-241.085 -267.241)"/>
        <path id="Path_57" data-name="Path 57" class="cls-6" d="M721.8,626.7a8.622,8.622,0,0,1-9.644,4.824,9.133,9.133,0,0,1-6.914-8.591,9.507,9.507,0,0,1,.57-3.766,8.951,8.951,0,0,1,1.924,1.815c.834,1.07,1.382,2.26,2.351,3.292a10.6,10.6,0,0,0,7.26,2.7,34.89,34.89,0,0,0,4.452-.271Z" transform="translate(-239.852 -274.942)"/>
        <path id="Path_58" data-name="Path 58" class="cls-9" d="M103.083,554.633c1.859-3.648-.249-8.106-2.671-11.353s-5.386-6.645-5.322-10.766c.093-5.945,6.07-9.462,10.829-12.612a53.607,53.607,0,0,0,9.724-8.287,15.13,15.13,0,0,0,2.985-4.235,18.041,18.041,0,0,0,.9-7.534q-.314-12.725-1.19-25.436" transform="translate(-64.389 -239.245)"/>
        <path id="Path_59" data-name="Path 59" class="cls-10" d="M133.373,470.943a9.355,9.355,0,0,0-4.381-7.6l-1.967,4.107.065-4.972a8.531,8.531,0,0,0-9.735,3.7,9.706,9.706,0,0,0,.358,10.931,8.482,8.482,0,0,0,9.955,2.969,9.3,9.3,0,0,0,5.706-9.122Z" transform="translate(-70.358 -236.201)"/>
        <path id="Path_60" data-name="Path 60" class="cls-10" d="M111.8,552.774a8.622,8.622,0,0,1-9.644,4.824,9.133,9.133,0,0,1-6.914-8.591,9.511,9.511,0,0,1,.571-3.766,8.614,8.614,0,0,1,16.39.1l-5.479,4.716,6.028-1.508a9.656,9.656,0,0,1-.951,4.227Z" transform="translate(-64.434 -255.258)"/>
        <path id="Path_61" data-name="Path 61" class="cls-10" d="M108.721,527.194a8.9,8.9,0,0,1-9.071-7.781A9.3,9.3,0,0,1,105.943,509l-.051,3.82,1.987-4.159h0a9.334,9.334,0,0,1,6.5,2.58,8.621,8.621,0,0,1,2.672,6.254,9.086,9.086,0,0,1-8.353,9.7Z" transform="translate(-65.683 -247.682)"/>
        <path id="Path_62" data-name="Path 62" class="cls-10" d="M138.581,507.307a8.752,8.752,0,0,1-8.577-5.77,9.646,9.646,0,0,1,2.339-10.462,8.4,8.4,0,0,1,10.117-1.1l-1.546,4.521,3.156-3.307a9.645,9.645,0,0,1,2.319,10,8.831,8.831,0,0,1-7.833,6.118Z" transform="translate(-74.249 -242.791)"/>
        <path id="Path_63" data-name="Path 63" class="cls-6" d="M132.183,475.09c-2.023.233-3.99.9-6.028,1.033a6.318,6.318,0,0,1-5.542-2.049,30.22,30.22,0,0,1-1.619-3.013,6.4,6.4,0,0,0-2.208-2.2,9.714,9.714,0,0,0,.894,9.921,8.516,8.516,0,0,0,8.877,3.338,9.041,9.041,0,0,0,6.614-7.095A9.5,9.5,0,0,0,132.183,475.09Z" transform="translate(-70.352 -237.875)"/>
        <path id="Path_64" data-name="Path 64" class="cls-6" d="M138.593,509.05a8.627,8.627,0,0,1-7.711-4.118,9.733,9.733,0,0,1-.631-9.112,6.69,6.69,0,0,1,1.76,1.868,31.828,31.828,0,0,0,1.738,3.066,6.928,6.928,0,0,0,5.821,2.14c2.117-.113,4.16-.753,6.273-.942.291,0,.585-.045.884-.053a8.909,8.909,0,0,1-8.134,7.151Z" transform="translate(-74.261 -244.524)"/>
        <path id="Path_65" data-name="Path 65" class="cls-6" d="M108.706,529a8.621,8.621,0,0,1-7.659-4.041,9.73,9.73,0,0,1-.757-9.015,7.326,7.326,0,0,1,1.859,1.883,31.342,31.342,0,0,0,1.9,3.126,7.684,7.684,0,0,0,6.206,2.26c2.238-.1,4.275-.611,6.412-.753A8.88,8.88,0,0,1,108.706,529Z" transform="translate(-65.668 -249.486)"/>
        <path id="Path_66" data-name="Path 66" class="cls-6" d="M111.8,554.7a8.622,8.622,0,0,1-9.644,4.824,9.133,9.133,0,0,1-6.914-8.591,9.514,9.514,0,0,1,.571-3.766,8.954,8.954,0,0,1,1.924,1.815c.834,1.07,1.382,2.26,2.351,3.292a10.6,10.6,0,0,0,7.26,2.7A34.842,34.842,0,0,0,111.8,554.7Z" transform="translate(-64.434 -257.186)"/>
        <path id="Path_67" data-name="Path 67" class="cls-9" d="M505.9,472.267c-1.86-3.64.249-8.1,2.679-11.345s5.378-6.63,5.316-10.766c-.085-5.953-6.056-9.462-10.829-12.612a53.386,53.386,0,0,1-9.712-8.287,14.868,14.868,0,0,1-2.993-4.227,18.293,18.293,0,0,1-.9-7.534q.32-12.725,1.19-25.436" transform="translate(-177.811 -218.938)"/>
        <path id="Path_68" data-name="Path 68" class="cls-10" d="M478.4,388.6a9.348,9.348,0,0,1,4.375-7.6l1.967,4.107-.057-4.972a8.533,8.533,0,0,1,2.885-.37,9.082,9.082,0,0,1,8.353,9.694,8.618,8.618,0,0,1-2.67,6.252,9.331,9.331,0,0,1-6.5,2.582A9.082,9.082,0,0,1,478.4,388.6Z" transform="translate(-174.626 -215.897)"/>
        <path id="Path_69" data-name="Path 69" class="cls-10" d="M499.945,470.374a8.6,8.6,0,0,0,10.117,4.708,9.236,9.236,0,0,0,6.441-9.5,9.086,9.086,0,0,0-7.46-8.622,8.721,8.721,0,0,0-9.51,5.945l5.479,4.715-6.028-1.508a9.653,9.653,0,0,0,.961,4.258Z" transform="translate(-180.535 -234.908)"/>
        <path id="Path_70" data-name="Path 70" class="cls-10" d="M503.045,444.835a8.9,8.9,0,0,0,9.079-7.781,9.3,9.3,0,0,0-6.293-10.413l.042,3.819-1.987-4.159h0a9.327,9.327,0,0,0-6.5,2.562,8.614,8.614,0,0,0-2.686,6.245,9.656,9.656,0,0,0,.378,3.165,8.861,8.861,0,0,0,7.972,6.562Z" transform="translate(-179.303 -227.375)"/>
        <path id="Path_71" data-name="Path 71" class="cls-10" d="M473.154,424.933a8.751,8.751,0,0,0,8.573-5.776,9.646,9.646,0,0,0-2.335-10.46,8.4,8.4,0,0,0-10.117-1.093l1.554,4.521-3.191-3.231a9.654,9.654,0,0,0-2.628,8.958,8.9,8.9,0,0,0,8.15,7.083Z" transform="translate(-170.698 -222.472)"/>
        <path id="Path_72" data-name="Path 72" class="cls-6" d="M479.648,392.727c2.023.233,3.99.9,6.02,1.033a6.347,6.347,0,0,0,5.55-2.048,30.189,30.189,0,0,0,1.619-3.013,6.421,6.421,0,0,1,2.226-2.2,9.713,9.713,0,0,1-.892,9.921,8.516,8.516,0,0,1-8.883,3.336,9.042,9.042,0,0,1-6.612-7.1C478.985,392.665,479.312,392.694,479.648,392.727Z" transform="translate(-174.693 -217.569)"/>
        <path id="Path_73" data-name="Path 73" class="cls-6" d="M473.26,426.67a8.634,8.634,0,0,0,7.705-4.122,9.74,9.74,0,0,0,.637-9.108,6.714,6.714,0,0,0-1.766,1.867,31.845,31.845,0,0,1-1.738,3.066,6.907,6.907,0,0,1-5.813,2.14c-2.116-.113-4.16-.753-6.273-.942-.291,0-.591-.045-.884-.053a8.9,8.9,0,0,0,8.132,7.151Z" transform="translate(-170.806 -224.209)"/>
        <path id="Path_74" data-name="Path 74" class="cls-6" d="M503.2,446.637a8.613,8.613,0,0,0,7.663-4.038,9.722,9.722,0,0,0,.751-9.019,7.194,7.194,0,0,0-1.852,1.883,31.353,31.353,0,0,1-1.9,3.126,7.7,7.7,0,0,1-6.212,2.26c-2.244-.1-4.276-.611-6.412-.753a8.858,8.858,0,0,0,7.964,6.54Z" transform="translate(-179.462 -229.177)"/>
        <path id="Path_75" data-name="Path 75" class="cls-6" d="M500.34,472.343a8.279,8.279,0,0,0,4.744,4.431,8.731,8.731,0,0,0,6.61-.229,9.471,9.471,0,0,0,4.64-11.734,8.6,8.6,0,0,0-1.924,1.815c-.834,1.07-1.416,2.26-2.351,3.291a10.618,10.618,0,0,1-7.266,2.7A36.387,36.387,0,0,1,500.34,472.343Z" transform="translate(-180.93 -236.877)"/>
        <ellipse id="Ellipse_45" data-name="Ellipse 45" class="cls-4" cx="71.214" cy="75.311" rx="71.214" ry="75.311" transform="translate(484.289 104.404)"/>
        <path id="Path_76" data-name="Path 76" class="cls-10" d="M849.2,409a53.85,53.85,0,0,0-11.4-8.054c-3.413-1.733-4.666-1.7-7.082.144-2.009,1.508-3.312,2.961-5.621,2.426s-6.88-4.181-11.307-8.845-7.859-9.47-8.351-11.948.862-3.827,2.3-5.953c1.738-2.554,1.789-3.881.136-7.49a58.126,58.126,0,0,0-7.622-12.061c-2.5-2.636-3.035-2.056-4.409-1.508a25.053,25.053,0,0,0-4.047,2.26,12.641,12.641,0,0,0-4.844,5.418c-.975,2.2-2.08,6.283,3.6,16.973a94.451,94.451,0,0,0,15.744,22.2h0a90.285,90.285,0,0,0,21.066,16.68c10.1,6.031,13.961,4.828,16.051,3.805a12.244,12.244,0,0,0,5.115-5.124,27.154,27.154,0,0,0,2.137-4.28C851.147,412.217,851.7,411.629,849.2,409Z" transform="translate(-263.131 -209.862)"/>
        <path id="Path_77" data-name="Path 77" class="cls-6" d="M802.958,300.86c-39.355-.021-71.272,33.709-71.278,75.328s31.911,75.367,71.266,75.353S874.17,417.8,874.17,376.176C874.152,334.592,842.281,300.881,802.958,300.86Zm0,140.6c-34.1,0-61.746-29.235-61.746-65.3s27.644-65.3,61.746-65.3,61.746,29.235,61.746,65.3-27.644,65.3-61.746,65.3Z" transform="translate(-247.456 -196.448)"/>
        <ellipse id="Ellipse_46" data-name="Ellipse 46" class="cls-4" cx="71.214" cy="75.311" rx="71.214" ry="75.311" transform="translate(320.679 218.795)"/>
        <path id="Path_78" data-name="Path 78" class="cls-10" d="M625.952,522.389l-21.325,22.936a.423.423,0,0,0,0,.583l14.961,16.823a2.843,2.843,0,0,1,.552,2.963,2.581,2.581,0,0,1-2.369,1.687,2.523,2.523,0,0,1-1.821-.8l-14.882-16.763a.39.39,0,0,0-.57,0l-3.626,3.873a15.518,15.518,0,0,1-11.4,5.07,15.866,15.866,0,0,1-11.6-5.214l-3.484-3.766a.391.391,0,0,0-.57,0l-14.848,16.73a2.474,2.474,0,0,1-3.642,0,2.825,2.825,0,0,1,0-3.85l14.9-16.786a.471.471,0,0,0,0-.584L544.913,522.35a.376.376,0,0,0-.429-.091.415.415,0,0,0-.241.389v45.91a6.54,6.54,0,0,0,6.333,6.7H620.3a6.541,6.541,0,0,0,6.333-6.7V522.682a.416.416,0,0,0-.245-.4.378.378,0,0,0-.439.109Z" transform="translate(-193.558 -251.038)"/>
        <path id="Path_79" data-name="Path 79" class="cls-10" d="M586.429,550.96a10.5,10.5,0,0,0,7.78-3.391l31.053-33.437a6,6,0,0,0-3.92-1.508H551.569a5.955,5.955,0,0,0-3.919,1.508l31.059,33.437A10.456,10.456,0,0,0,586.429,550.96Z" transform="translate(-194.534 -248.675)"/>
        <path id="Path_80" data-name="Path 80" class="cls-6" d="M572.051,452.69c-39.355-.021-71.272,33.709-71.278,75.328s31.911,75.367,71.266,75.353,71.224-33.746,71.224-75.365C643.239,486.42,611.368,452.709,572.051,452.69Zm0,140.6c-34.1,0-61.746-29.235-61.746-65.3s27.64-65.3,61.746-65.3,61.746,29.235,61.746,65.3S606.148,593.29,572.051,593.29Z" transform="translate(-181.049 -233.89)"/>
        <ellipse id="Ellipse_47" data-name="Ellipse 47" class="cls-4" cx="71.214" cy="75.311" rx="71.214" ry="75.311" transform="translate(151.668 162.552)"/>
        <path id="Path_81" data-name="Path 81" class="cls-10" d="M353.39,430.16,325,499.428l2.651,2.8L353.4,490.223l25.748,12.009,2.651-2.8Z" transform="translate(-130.507 -228.333)"/>
        <path id="Path_82" data-name="Path 82" class="cls-6" d="M336.078,378c-39.351-.021-71.266,33.7-71.278,75.314s31.881,75.359,71.224,75.365,71.262-33.738,71.254-75.353c0-41.576-31.869-75.3-71.2-75.328Zm0,140.6c-34.106,0-61.752-29.243-61.746-65.309S301.984,388,336.09,388.008s61.754,29.268,61.734,65.335-27.64,65.286-61.738,65.29Z" transform="translate(-113.195 -215.472)"/>
        <path id="Path_83" data-name="Path 83" class="cls-11" d="M827.2,593.172q-.969-2.5-1.987-4.988a15.026,15.026,0,0,0-2.428-4.437,4.48,4.48,0,0,0-1.416-1.13,5.793,5.793,0,0,0-1.859-.389,14.052,14.052,0,0,0-2.922-.084c-.378-.121-.809-.278-1.226-.459a10.641,10.641,0,0,0,7.58-9.984v-.459a10.454,10.454,0,0,0-10.117-10.781,49.329,49.329,0,0,0-15.985,7.052,12.82,12.82,0,0,0-3.642,9.266v.475c.186,5.853,3.761,10.548,8.278,11.022a4.739,4.739,0,0,0-1.311.926,8.9,8.9,0,0,0-1.76,5.68l-.107,1.506-2.394.9a.461.461,0,0,0-.289.375.479.479,0,0,0,.182.446l2.286,1.726v.43a2,2,0,0,0,.043.49,3.463,3.463,0,0,0-.884,1.332,6.5,6.5,0,0,0-.2,2.442l.085,2.1a17.4,17.4,0,0,0,.607,4.679c.3.934,1.6,3.186,2.529,3.2a102.913,102.913,0,0,0-1.091,12.884c-.107.113.2.218.712.309.514,4.159,2.187,15.822,5.158,20.951a46.328,46.328,0,0,1,1.119,5.093,102.84,102.84,0,0,0,1.967,14.374,77.041,77.041,0,0,1,1.916,11.723,1.124,1.124,0,0,0-.791.858c-.562,1.794-4.211,4.521-4.211,4.521a17.55,17.55,0,0,0-3.148,2.14c-1.147,1.093-1.1,2.08,3.99,1.461,9.832-1.2,11.513-4.521,11.513-4.521s-.156-.558-.392-1.28a14.341,14.341,0,0,0-1.289-3.217c-.142-.144-.285.1-.455.475a68.168,68.168,0,0,1-.67-14.547,24.9,24.9,0,0,0-1.125-8.686,17.385,17.385,0,0,1,0-5.688c.563-2.4-2.244-14.081-2.244-14.081l-1.619-8.6a2.536,2.536,0,0,1,.449,1l.042.173.043.249a.475.475,0,0,0,.113.233c1.1,4.823,4.1,18.179,4.1,20.138a33.138,33.138,0,0,0,2.807,8.384s1.119,9.884,3.085,13.771a21.009,21.009,0,0,1,1.461,9.215h0a8.915,8.915,0,0,1-.9,3.058,7.4,7.4,0,0,0-1.062,1.945l-.065.144s-.84,1.8-.277,2.1a13.108,13.108,0,0,0,6.74.9,6.644,6.644,0,0,0,1.125-2.1,9.978,9.978,0,0,0-.128-1.07c-.2-1.416-.591-3.646-.607-3.669a10.786,10.786,0,0,0-.712-3.646l-.285-8.384a40.792,40.792,0,0,0-1.967-16.779,29.287,29.287,0,0,1-1.119-6.886c.306-1.5-.562-17.374-.562-17.374l-.085-.226a18.154,18.154,0,0,1,.085-3.367,47.2,47.2,0,0,0-1.125-11.376,10.4,10.4,0,0,1-.4-2.478c.065-.624.257-2.457.52-4.731a76.128,76.128,0,0,0,8.278-.753,1,1,0,0,0,.712-.3,1.1,1.1,0,0,0,.164-.611A30.61,30.61,0,0,0,827.2,593.172Zm-5.649,9.5c.291-2.14.607-4.227.919-5.772l.042.136a43.727,43.727,0,0,1,1.354,4.747,14.725,14.725,0,0,1-2.309.887Z" transform="translate(-265.151 -260.464)"/>
        <path id="Path_84" data-name="Path 84" class="cls-12" d="M802.37,648.489s1.681,15.995,5.321,22.21a45.167,45.167,0,0,1,1.119,5.033,100.27,100.27,0,0,0,1.959,14.2,82.56,82.56,0,0,1,1.959,12.145s3.919,4.731,5.321.889a65.933,65.933,0,0,1-.842-15.4,24.466,24.466,0,0,0-1.119-8.589,16.971,16.971,0,0,1,0-5.62c.557-2.373-2.244-13.915-2.244-13.915l-2.238-11.55Z" transform="translate(-267.786 -282.033)"/>
        <path id="Path_85" data-name="Path 85" class="cls-13" d="M820.646,723.461s-1.681,3.254-11.477,4.437c-5.087.611-5.123-.362-3.976-1.447a17.624,17.624,0,0,1,3.134-2.109s3.642-2.659,4.2-4.437,2.521-.294,2.521-.294c2.8,4.437,3.363-1.19,3.917-.6a13.784,13.784,0,0,1,1.289,3.171C820.49,722.9,820.646,723.461,820.646,723.461Z" transform="translate(-268.421 -299.552)"/>
        <path id="Path_86" data-name="Path 86" class="cls-6" d="M820.646,724.513s-1.681,3.255-11.477,4.437c-5.087.611-5.123-.362-3.976-1.447.8.535,2.408.753,5.649-.626,4.666-2.019,8.051-3.187,9.411-3.638C820.49,723.957,820.646,724.513,820.646,724.513Z" transform="translate(-268.421 -300.606)"/>
        <path id="Path_87" data-name="Path 87" class="cls-6" d="M820.158,687.574a24.459,24.459,0,0,0-1.119-8.589,16.975,16.975,0,0,1,0-5.62c.556-2.373-2.244-13.915-2.244-13.915l-2.238-11.55-1.938.121,2.226,11.429s2.8,11.542,2.244,13.915a16.975,16.975,0,0,0,0,5.62,23.742,23.742,0,0,1,1.119,8.589,65.929,65.929,0,0,0,.842,15.4,2.594,2.594,0,0,1-.809,1.22c1.04.5,2.137.475,2.772-1.22A65.919,65.919,0,0,1,820.158,687.574Z" transform="translate(-270.734 -282.027)"/>
        <path id="Path_88" data-name="Path 88" class="cls-4" d="M812.729,562.421a50.017,50.017,0,0,0-15.972,6.976,12.622,12.622,0,0,0-3.626,9.161c0,6.3,4.01,11.4,8.956,11.4,3.561,0,6.677-2.683,8.114-6.562a9.332,9.332,0,0,0,2.521.346,10.672,10.672,0,0,0,0-21.321Z" transform="translate(-265.128 -260.949)"/>
        <path id="Path_89" data-name="Path 89" class="cls-12" d="M827.7,650.65l.84,2.366s.84,15.693.556,17.178a29.416,29.416,0,0,0,1.125,6.781,39.934,39.934,0,0,1,1.959,16.575l.277,8.287s1.119,3.255.563,3.85-4.781-.527-4.781-.527a22.26,22.26,0,0,0-1.417-10.065c-1.987-3.85-3.078-13.617-3.078-13.617a32.576,32.576,0,0,1-2.8-8.287c0-2.366-4.482-21.615-4.482-21.615Z" transform="translate(-271.835 -282.705)"/>
        <path id="Path_90" data-name="Path 90" class="cls-4" d="M801.571,644.157s.285-10.661,1.416-13.915a23.08,23.08,0,0,0,1.247-4.723s16.948,3.239,18.352,2.056a27.088,27.088,0,0,0,.563,4.437,44.9,44.9,0,0,1,1.119,11.256c-.305,3.556,0,3.548,0,3.548s-11.485,1.778-11.762,0-1.119-1.77-1.119-1.77S801.016,644.718,801.571,644.157Z" transform="translate(-267.549 -276.51)"/>
        <g id="Group_7" data-name="Group 7" class="cls-3" transform="translate(534.02 351.069)">
          <path id="Path_91" data-name="Path 91" d="M810.819,650.061s-7.082-.195-9.219-.611v.611c-.556.584,9.8.889,9.8.889a.692.692,0,0,1,.384.166C811.412,650.061,810.819,650.061,810.819,650.061Z" transform="translate(-801.579 -633.479)"/>
          <path id="Path_92" data-name="Path 92" d="M827.518,632.687a27.105,27.105,0,0,1-.563-4.437,1.169,1.169,0,0,1-.478.181,15.762,15.762,0,0,0,.478,3.368,49.6,49.6,0,0,1,1.119,11.256c-.305,3.556,0,3.548,0,3.548s-9.083,1.408-11.285.467a3.81,3.81,0,0,0,.085.422c.277,1.778,11.762,0,11.762,0s-.285,0,0-3.548a46.426,46.426,0,0,0-1.119-11.256Z" transform="translate(-805.951 -628.25)"/>
          <path id="Path_93" data-name="Path 93" d="M810.819,650.061s-7.082-.195-9.219-.611v.611c-.556.584,9.8.889,9.8.889a.692.692,0,0,1,.384.166C811.412,650.061,810.819,650.061,810.819,650.061Z" transform="translate(-801.579 -633.479)"/>
          <path id="Path_94" data-name="Path 94" d="M827.518,632.687a27.105,27.105,0,0,1-.563-4.437,1.169,1.169,0,0,1-.478.181,15.762,15.762,0,0,0,.478,3.368,49.6,49.6,0,0,1,1.119,11.256c-.305,3.556,0,3.548,0,3.548s-9.083,1.408-11.285.467a3.81,3.81,0,0,0,.085.422c.277,1.778,11.762,0,11.762,0s-.285,0,0-3.548a46.426,46.426,0,0,0-1.119-11.256Z" transform="translate(-805.951 -628.25)"/>
        </g>
        <path id="Path_95" data-name="Path 95" class="cls-12" d="M816.464,586.18a3.893,3.893,0,0,0,1.068,1.461,2.329,2.329,0,0,0,1.012.459c-.627.389-1.311.671-1.938,1.054a34.684,34.684,0,0,0-2.849,2.26,5.622,5.622,0,0,1-3.27,1.34,4.438,4.438,0,0,0,.455-4.212,4.073,4.073,0,0,1-.5-1.461,2.619,2.619,0,0,1,1.376-1.959c.534-.389,1.082-.753,1.639-1.122.435-.286,1.091-.889,1.639-.866s.607.535.712,1.062a8.664,8.664,0,0,0,.654,1.982Z" transform="translate(-270.101 -266.061)"/>
        <path id="Path_96" data-name="Path 96" class="cls-6" d="M816.464,586.18a3.893,3.893,0,0,0,1.068,1.461,2.329,2.329,0,0,0,1.012.459c-.627.389-1.311.671-1.938,1.054a34.684,34.684,0,0,0-2.849,2.26,5.622,5.622,0,0,1-3.27,1.34,4.438,4.438,0,0,0,.455-4.212,4.073,4.073,0,0,1-.5-1.461,2.619,2.619,0,0,1,1.376-1.959c.534-.389,1.082-.753,1.639-1.122.435-.286,1.091-.889,1.639-.866s.607.535.712,1.062a8.664,8.664,0,0,0,.654,1.982Z" transform="translate(-270.101 -266.061)"/>
        <ellipse id="Ellipse_48" data-name="Ellipse 48" class="cls-12" cx="6.44" cy="6.811" rx="6.44" ry="6.811" transform="translate(546.482 323.976)"/>
        <path id="Path_97" data-name="Path 97" class="cls-13" d="M837.639,727.334a6.4,6.4,0,0,1-1.119,2.072,13.173,13.173,0,0,1-6.718-.889c-.562-.294.277-2.072.277-2.072l.065-.144a7.3,7.3,0,0,1,1.062-1.928,8.8,8.8,0,0,0,.89-3.013c1.738-3.013,4.824,1.3,4.824,1.3s.393,2.26.607,3.632C837.588,726.784,837.639,727.185,837.639,727.334Z" transform="translate(-275.617 -299.879)"/>
        <path id="Path_98" data-name="Path 98" class="cls-6" d="M837.639,729.294a6.407,6.407,0,0,1-1.119,2.072,13.171,13.171,0,0,1-6.718-.889c-.562-.294.277-2.072.277-2.072l.065-.144a12.913,12.913,0,0,0,6.1,1.327l1.275-1.348C837.588,728.746,837.639,729.135,837.639,729.294Z" transform="translate(-275.617 -301.839)"/>
        <ellipse id="Ellipse_49" data-name="Ellipse 49" class="cls-12" cx="6.299" cy="6.661" rx="6.299" ry="6.661" transform="translate(533.745 309.909)"/>
        <path id="Path_99" data-name="Path 99" class="cls-12" d="M802.077,599.554a8.676,8.676,0,0,0-1.752,5.612l-.215,2.945a15.752,15.752,0,0,0-.051,2.389c0,.49.113.986.156,1.508s.057,1.167.065,1.77v4.356a5.4,5.4,0,0,0,.455,2.614,1.592,1.592,0,0,0,.892.834,1.679,1.679,0,0,0,1.245-.021,2.6,2.6,0,0,0,.884-1.448,23.494,23.494,0,0,0,1.417-5.515c.057-.656.065-1.311.121-1.967s.164-1.34.257-2c.4-2.772.577-5.576.755-8.365.051-.829.755-4.085-.271-4.453-.5-.173-1.532.37-2.009.55a5.588,5.588,0,0,0-1.959,1.2Z" transform="translate(-267.115 -269.665)"/>
        <path id="Path_100" data-name="Path 100" class="cls-6" d="M802.077,599.554a8.676,8.676,0,0,0-1.752,5.612l-.215,2.945a15.752,15.752,0,0,0-.051,2.389c0,.49.113.986.156,1.508s.057,1.167.065,1.77v4.356a5.4,5.4,0,0,0,.455,2.614,1.592,1.592,0,0,0,.892.834,1.679,1.679,0,0,0,1.245-.021,2.6,2.6,0,0,0,.884-1.448,23.494,23.494,0,0,0,1.417-5.515c.057-.656.065-1.311.121-1.967s.164-1.34.257-2c.4-2.772.577-5.576.755-8.365.051-.829.755-4.085-.271-4.453-.5-.173-1.532.37-2.009.55a5.588,5.588,0,0,0-1.959,1.2Z" transform="translate(-267.115 -269.665)"/>
        <path id="Path_101" data-name="Path 101" class="cls-13" d="M816.387,588.16a34.27,34.27,0,0,1-7.559,4.739s-1.659,2-1.944,2.486-.856,5.8-1.416,6.992a5.923,5.923,0,0,0,0,6.509,11.908,11.908,0,0,1,.277,3.556c-.277.889-1.3,4.144-.37,4.293s3.733,2.216,6.248,1.628,11.9,2.26,11.9,2.26,1.554-15.255,2.679-17.954l-2.521-.889s-7-4.437-2.8-11.248C820.869,590.533,816.936,589.644,816.387,588.16Z" transform="translate(-268.365 -267.295)"/>
        <path id="Path_102" data-name="Path 102" class="cls-4" d="M796.767,611.2l5.785,4.332a.417.417,0,0,0,.506,0l1.568-1.243a.485.485,0,0,0,0-.708l-4.452-4.181a.417.417,0,0,0-.435-.09l-2.857,1.085a.454.454,0,0,0-.287.366.473.473,0,0,0,.172.438Z" transform="translate(-266.122 -272.502)"/>
        <path id="Path_103" data-name="Path 103" class="cls-12" d="M799.278,625.335a17.285,17.285,0,0,1-.607-4.618l-.085-2.087a6.351,6.351,0,0,1,.2-2.41,3.8,3.8,0,0,1,2.4-2.224,7.857,7.857,0,0,1,3.27-.249.8.8,0,0,1,.421.12.838.838,0,0,1,.229.407,2.87,2.87,0,0,1,.127,2.177,2.212,2.212,0,0,1-.656.716c-.777.584-1.681.973-2.416,1.62a.917.917,0,0,0-.328.438,1.074,1.074,0,0,0,0,.475,7.887,7.887,0,0,0,.37,1.214,1.2,1.2,0,0,0,.322.512c.136.121.314.165.455.278.306.263.947.611.912,1.025a35.248,35.248,0,0,1-1.3,4.687C801.965,630.329,799.69,626.607,799.278,625.335Z" transform="translate(-266.688 -273.587)"/>
        <g id="Group_8" data-name="Group 8" class="cls-3" transform="translate(541.432 334.93)">
          <path id="Path_104" data-name="Path 104" d="M812.136,628.227h-.156a4.544,4.544,0,0,0,1.821,0h.178a6.057,6.057,0,0,0-1.851,0Z" transform="translate(-811.98 -612.09)"/>
          <path id="Path_105" data-name="Path 105" d="M831.72,606.83c-1.012,2.389-2.487,15.324-2.75,17.9.984.27,1.631.467,1.631.467s1.54-15.219,2.665-17.917Z" transform="translate(-816.866 -606.83)"/>
        </g>
        <path id="Path_106" data-name="Path 106" class="cls-12" d="M823.674,598.948a2.27,2.27,0,0,0,.918,1.469,10.056,10.056,0,0,1,3.25,5.179,43.745,43.745,0,0,1,1.346,4.686c-3.561,1.751-7.608,1.665-11.4,2.817a9.012,9.012,0,0,0-4.275,2.675,6.455,6.455,0,0,0-1.574,4.9.67.67,0,0,0,.085.294.583.583,0,0,0,.5.21,4.127,4.127,0,0,0,2.614-.949,12.811,12.811,0,0,0,2-2.08,3.24,3.24,0,0,1,1.417-1.115,22.1,22.1,0,0,1,6.412-.663,76.442,76.442,0,0,0,9.554-.8.744.744,0,0,0,.635-.233.84.84,0,0,0,.221-.671,30.357,30.357,0,0,0-2.849-12.906q-.961-2.478-1.981-4.935a14.831,14.831,0,0,0-2.428-4.385,4.293,4.293,0,0,0-1.417-1.115,5.737,5.737,0,0,0-1.91-.377,12.81,12.81,0,0,0-3.128-.06,7.424,7.424,0,0,0-.3,1.71,15.426,15.426,0,0,0,1.724,5.778C823.2,598.669,823.51,598.685,823.674,598.948Z" transform="translate(-270.531 -267.959)"/>
        <path id="Path_107" data-name="Path 107" class="cls-14" d="M812.122,606.67a5.769,5.769,0,0,0-.712,2.877,4.074,4.074,0,0,0,.178,1.167,3.7,3.7,0,0,0,2.272,2.261" transform="translate(-270.385 -271.86)"/>
        <path id="Path_108" data-name="Path 108" class="cls-4" d="M812.3,573.049a3.1,3.1,0,0,0-1.034.173,6.684,6.684,0,0,0-5.7-2.546c-3.405,0-6.163,1.862-6.163,4.151s2.758,4.144,6.163,4.144a8.275,8.275,0,0,0,3.7-.829,3.293,3.293,0,0,0,4.015,1.846,3.561,3.561,0,0,0,2.325-3.92,3.419,3.419,0,0,0-3.318-3.017Z" transform="translate(-266.931 -262.988)"/>
        <path id="Path_109" data-name="Path 109" class="cls-6" d="M812.569,580.19a3.338,3.338,0,0,1-3.021-2.011,8.275,8.275,0,0,1-3.7.829c-3.4,0-6.155-1.854-6.155-4.144a2.63,2.63,0,0,1,0-.414,2.94,2.94,0,0,0-.314,1.3c0,2.26,2.758,4.144,6.163,4.144a8.274,8.274,0,0,0,3.7-.829,3.318,3.318,0,0,0,3.462,1.976,3.44,3.44,0,0,0,2.859-2.858A3.33,3.33,0,0,1,812.569,580.19Z" transform="translate(-266.921 -263.915)"/>
        <path id="Path_110" data-name="Path 110" class="cls-6" d="M796.755,570.687a26.043,26.043,0,0,1,20.517-5.836,10.676,10.676,0,0,1,5.5,8.628v-.889A10.761,10.761,0,0,0,817.6,563.3a25.214,25.214,0,0,0-20.877,5.641,12.621,12.621,0,0,0-3.626,9.161v.889A12.352,12.352,0,0,1,796.755,570.687Z" transform="translate(-265.114 -260.49)"/>
        <path id="Path_111" data-name="Path 111" class="cls-9" d="M885.164,550.745c1.86-3.64-.249-8.106-2.679-11.353s-5.378-6.614-5.315-10.766c.085-5.945,6.056-9.454,10.829-12.612a53.322,53.322,0,0,0,9.712-8.287A14.972,14.972,0,0,0,900.7,503.5a18.288,18.288,0,0,0,.9-7.534q-.314-12.732-1.19-25.435" transform="translate(-289.295 -238.289)"/>
        <path id="Path_112" data-name="Path 112" class="cls-10" d="M915.457,467.032a9.34,9.34,0,0,0-4.375-7.587l-1.967,4.107.057-4.972a8.168,8.168,0,0,0-2.885-.37,9.082,9.082,0,0,0-8.353,9.7,8.618,8.618,0,0,0,2.672,6.252,9.332,9.332,0,0,0,6.5,2.58,9.084,9.084,0,0,0,8.351-9.7Z" transform="translate(-295.275 -235.243)"/>
        <path id="Path_113" data-name="Path 113" class="cls-10" d="M893.89,548.823a8.6,8.6,0,0,1-10.117,4.7,9.236,9.236,0,0,1-6.438-9.5,9.086,9.086,0,0,1,7.458-8.622,8.711,8.711,0,0,1,9.51,5.939l-5.471,4.717,6.028-1.508A9.656,9.656,0,0,1,893.89,548.823Z" transform="translate(-289.347 -254.253)"/>
        <path id="Path_114" data-name="Path 114" class="cls-10" d="M890.8,523.278a8.9,8.9,0,0,1-9.079-7.781,9.3,9.3,0,0,1,6.293-10.413l-.042,3.821,1.987-4.151h0a9.34,9.34,0,0,1,6.5,2.585,8.628,8.628,0,0,1,2.671,6.253,9.59,9.59,0,0,1-2.275,6.678,8.574,8.574,0,0,1-6.07,3.017Z" transform="translate(-290.584 -246.721)"/>
        <path id="Path_115" data-name="Path 115" class="cls-10" d="M920.654,503.4a8.754,8.754,0,0,1-8.573-5.776,9.647,9.647,0,0,1,2.343-10.46,8.4,8.4,0,0,1,10.117-1.093l-1.554,4.521,3.191-3.239a9.653,9.653,0,0,1,2.628,8.958,8.9,8.9,0,0,1-8.152,7.089Z" transform="translate(-299.152 -241.823)"/>
        <path id="Path_116" data-name="Path 116" class="cls-6" d="M914.267,471.171c-2.023.241-4,.9-6.028,1.039a6.332,6.332,0,0,1-5.55-2.056,29.309,29.309,0,0,1-1.619-3.013,6.466,6.466,0,0,0-2.21-2.2,9.714,9.714,0,0,0,.892,9.921,8.515,8.515,0,0,0,8.883,3.336,9.042,9.042,0,0,0,6.613-7.1C914.922,471.111,914.594,471.132,914.267,471.171Z" transform="translate(-295.258 -236.909)"/>
        <path id="Path_117" data-name="Path 117" class="cls-6" d="M920.665,505.14a8.634,8.634,0,0,1-7.705-4.122,9.74,9.74,0,0,1-.637-9.108,6.687,6.687,0,0,1,1.767,1.862,30.13,30.13,0,0,0,1.738,3.066,6.91,6.91,0,0,0,5.813,2.155c2.116-.105,4.16-.753,6.272-.942.291,0,.591-.053.884-.06A8.911,8.911,0,0,1,920.665,505.14Z" transform="translate(-299.163 -243.56)"/>
        <path id="Path_118" data-name="Path 118" class="cls-6" d="M890.781,525.071a8.614,8.614,0,0,1-7.673-4.041,9.723,9.723,0,0,1-.743-9.03,7.43,7.43,0,0,1,1.851,1.883c.712,1.017,1.105,2.192,1.9,3.126a7.858,7.858,0,0,0,6.212,2.305c2.244-.052,4.275-.619,6.412-.792a8.865,8.865,0,0,1-7.962,6.548Z" transform="translate(-290.567 -248.515)"/>
        <path id="Path_119" data-name="Path 119" class="cls-6" d="M893.919,550.794a8.284,8.284,0,0,1-4.753,4.354,8.727,8.727,0,0,1-6.56-.252,9.476,9.476,0,0,1-4.682-11.637,8.782,8.782,0,0,1,1.924,1.815c.84,1.078,1.39,2.26,2.351,3.307a10.652,10.652,0,0,0,7.266,2.7,36.346,36.346,0,0,0,4.451-.278Z" transform="translate(-289.374 -256.222)"/>
        <path id="Path_120" data-name="Path 120" class="cls-9" d="M1044.164,702.745c1.86-3.64-.249-8.106-2.679-11.353s-5.378-6.614-5.315-10.766c.085-5.945,6.056-9.454,10.829-12.612a53.318,53.318,0,0,0,9.712-8.287,14.977,14.977,0,0,0,2.993-4.227,18.294,18.294,0,0,0,.9-7.534q-.306-12.733-1.19-25.436" transform="translate(-335.019 -275.77)"/>
        <path id="Path_121" data-name="Path 121" class="cls-10" d="M1074.472,619.033a9.339,9.339,0,0,0-4.374-7.587l-1.967,4.107.057-4.972a8.176,8.176,0,0,0-2.849-.37,9.084,9.084,0,0,0-8.353,9.7,8.62,8.62,0,0,0,2.672,6.252,9.333,9.333,0,0,0,6.5,2.58,9.084,9.084,0,0,0,8.35-9.7Z" transform="translate(-341.011 -272.726)"/>
        <path id="Path_122" data-name="Path 122" class="cls-10" d="M1052.891,700.822a8.6,8.6,0,0,1-10.117,4.706,9.238,9.238,0,0,1-6.44-9.5,9.086,9.086,0,0,1,7.458-8.622,8.711,8.711,0,0,1,9.51,5.939l-5.469,4.716,6.028-1.508a9.648,9.648,0,0,1-.969,4.264Z" transform="translate(-335.072 -291.735)"/>
        <path id="Path_123" data-name="Path 123" class="cls-10" d="M1049.8,675.278a8.9,8.9,0,0,1-9.079-7.781,9.3,9.3,0,0,1,6.292-10.414l-.042,3.821,1.987-4.151h0a9.338,9.338,0,0,1,6.5,2.585,8.626,8.626,0,0,1,2.671,6.253,9.591,9.591,0,0,1-2.274,6.678,8.573,8.573,0,0,1-6.07,3.017Z" transform="translate(-336.308 -284.204)"/>
        <path id="Path_124" data-name="Path 124" class="cls-10" d="M1079.656,655.4a8.751,8.751,0,0,1-8.574-5.776,9.646,9.646,0,0,1,2.343-10.46,8.4,8.4,0,0,1,10.117-1.093l-1.554,4.521,3.191-3.239a9.652,9.652,0,0,1,2.628,8.958,8.9,8.9,0,0,1-8.152,7.089Z" transform="translate(-344.875 -279.305)"/>
        <path id="Path_125" data-name="Path 125" class="cls-6" d="M1073.269,623.171c-2.023.241-4,.9-6.028,1.039a6.331,6.331,0,0,1-5.55-2.056,29.255,29.255,0,0,1-1.619-3.014,6.466,6.466,0,0,0-2.21-2.2,9.717,9.717,0,0,0,.892,9.921,8.515,8.515,0,0,0,8.882,3.336,9.043,9.043,0,0,0,6.613-7.1C1073.916,623.111,1073.592,623.132,1073.269,623.171Z" transform="translate(-340.98 -274.392)"/>
        <path id="Path_126" data-name="Path 126" class="cls-6" d="M1079.663,657.14a8.636,8.636,0,0,1-7.705-4.122,9.743,9.743,0,0,1-.637-9.108,6.679,6.679,0,0,1,1.766,1.862,30.107,30.107,0,0,0,1.739,3.066,6.909,6.909,0,0,0,5.813,2.155c2.116-.105,4.16-.753,6.272-.942.291,0,.591-.052.884-.06a8.911,8.911,0,0,1-8.133,7.149Z" transform="translate(-344.888 -281.042)"/>
        <path id="Path_127" data-name="Path 127" class="cls-6" d="M1049.779,677.071a8.613,8.613,0,0,1-7.673-4.041,9.72,9.72,0,0,1-.74-9.03,7.424,7.424,0,0,1,1.851,1.883c.712,1.017,1.1,2.193,1.9,3.126a7.857,7.857,0,0,0,6.212,2.305c2.244-.052,4.276-.619,6.412-.792a8.866,8.866,0,0,1-7.964,6.548Z" transform="translate(-336.292 -285.998)"/>
        <path id="Path_128" data-name="Path 128" class="cls-6" d="M1052.923,702.794a8.285,8.285,0,0,1-4.753,4.354,8.727,8.727,0,0,1-6.56-.252,9.476,9.476,0,0,1-4.682-11.637,8.777,8.777,0,0,1,1.925,1.815c.84,1.078,1.416,2.26,2.351,3.307a10.65,10.65,0,0,0,7.266,2.7,36.361,36.361,0,0,0,4.454-.284Z" transform="translate(-335.093 -293.705)"/>
        <path id="Path_129" data-name="Path 129" class="cls-15" d="M491.446,580.981a7.543,7.543,0,0,0-2.786-5.966q-5.962-7.61-12.3-14.94h0a6.627,6.627,0,0,0-1.012-.249h-1.214a8.186,8.186,0,0,0-7.752,7.248c-2.5-.611-4.787.181-5.208,1.854a2.383,2.383,0,0,0,.071,1.34,5.61,5.61,0,0,0,3.676,3.149l.243.076.364.1h.079a6.988,6.988,0,0,0-.607,2.856,6.642,6.642,0,0,0,3.355,5.877l-.164.105a2.352,2.352,0,0,0-.542.8,12.341,12.341,0,0,0-1.048,2.667c-.178.8-.2,1.628-.427,2.418a22.847,22.847,0,0,0-1.588,4.2c-.057.679.051,1.508-.4,1.945a2.219,2.219,0,0,1-.364.27,3.045,3.045,0,0,0-.791.881,2.933,2.933,0,0,1-.556.844c-.4.325-1.091.294-1.289.8s.32,1.1.2,1.65-.563.655-.884.973a3.417,3.417,0,0,0-.763,1.508,4.49,4.49,0,0,1-3.844-1.039,7.94,7.94,0,0,1,.4,1.508,6.117,6.117,0,0,0-2.074-1.1,6.585,6.585,0,0,1-2.208-1.733l1.182-.173-5.222-8.431-1.546-.338,1.382,2.811a.885.885,0,0,0-.469.6,2.7,2.7,0,0,0-.05.957,18.03,18.03,0,0,0,.356,2.26l.4,1.975c.036.181.079.37.127.55a4.663,4.663,0,0,0-1.546.181,12.848,12.848,0,0,0-3.213-.805,1.68,1.68,0,0,0-.712,0,1.867,1.867,0,0,0-.678.583,23.229,23.229,0,0,0-2.388,3.556,123.921,123.921,0,0,1-10.075,14.353c-2.428,1.039-4.856,2.027-7.309,3.013L417,622.226a7.613,7.613,0,0,1-3.264.753c-.5,0-1.119-.113-1.416.338a3.273,3.273,0,0,0-.32.753l-.542.06h0a6.706,6.706,0,0,0-1.26-2.457.8.8,0,0,0-.591.482,7.6,7.6,0,0,1-.356.753c-.277.438-.769.648-1.119,1.017s-.571.942-.955,1.319a3.659,3.659,0,0,1-1.789.753,10.91,10.91,0,0,0-2.8,1.122,4.407,4.407,0,0,1-1.034.5,3.673,3.673,0,0,1-1.214.045l-2.778-.218a2.082,2.082,0,0,0-.749.037,1.515,1.515,0,0,0-.884,1.508,2.4,2.4,0,0,0,.884,1.62,5.553,5.553,0,0,0,1.582.866,44.515,44.515,0,0,0,7.41,2.321v.6a12.088,12.088,0,0,0,5.7,1.432.837.837,0,0,0,.427-.084,1,1,0,0,0,.356-.584,25.467,25.467,0,0,0,1.111-5.772h0a2.726,2.726,0,0,0,1.012-.27c.955-.278,1.91.414,2.9.527a7.6,7.6,0,0,0,3.5-1.07l.5-.173a5.619,5.619,0,0,1-1.153,1.167c-.477.362-1.012.632-1.475,1.01a10.262,10.262,0,0,1-1.255,1.025,7.676,7.676,0,0,1-.961.389,6.212,6.212,0,0,0-1.376.753,2.861,2.861,0,0,0-.933.973,1.519,1.519,0,0,0-.079,1.362,1.356,1.356,0,0,0,.919.679,3.579,3.579,0,0,0,1.133,0c1.51-.121,3.013-.265,4.516-.406a11.437,11.437,0,0,0,1.888-.286c.328-.084.656-.195.983-.294a8.321,8.321,0,0,1,1.718-.271,1.351,1.351,0,0,1,.5.053c.35.121.607.5.955.572a1.358,1.358,0,0,0,.712-.1,15.046,15.046,0,0,1,3.341-.378,1.351,1.351,0,0,0,1.3-.611c.229-.482-.186-1.259-.37-1.9a6.133,6.133,0,0,1-.156-1.251,8.166,8.166,0,0,0-.826-2.969,7.942,7.942,0,0,1-.619-1.362,31.754,31.754,0,0,0,6.149-3.307,10.75,10.75,0,0,1,3.5-1.786,9.051,9.051,0,0,1,4.4.543,96.555,96.555,0,0,1,10.095,3.721,51.1,51.1,0,0,0,4.767,1.928,7.641,7.641,0,0,0,1.7,1.741,7.515,7.515,0,0,0,3.669,1.062,45.405,45.405,0,0,0,5.166.194,8.3,8.3,0,0,0,3.844-.753,3.958,3.958,0,0,0,.809-.564,3.1,3.1,0,0,0,2.535-.986,6.559,6.559,0,0,0,1.93-3.225c.421-1.718.1-3.766,1.1-5.138.263-.377.607-.679.876-1.054a3.1,3.1,0,0,0,.455-1.741.356.356,0,0,1,.043-.068,6.678,6.678,0,0,0,.427-1.733,10.276,10.276,0,0,1,.463-1.362q.759-1.994,1.325-4.062a24.886,24.886,0,0,0,.607-2.788c.107-.753.17-1.508.229-2.26a14.758,14.758,0,0,1,.647-3.488,29.829,29.829,0,0,0,1.5-8.347v-.165a5.5,5.5,0,0,0,4.688-5.7,6.233,6.233,0,0,0-.492-2.434,7.869,7.869,0,0,0,.955-3.8Zm-25.495,32.75c.079.294.172.584.263.866-.421-.43-.826-.873-1.246-1.311.164.06.334.113.492.181a2.6,2.6,0,0,1,.469.263Zm-2.023-1.447c-2.464-2.26-5.316-4.015-7.837-6.208,1.376.716,2.713,1.556,4.047,2.35q2.357,1.424,4.781,2.735a4.049,4.049,0,0,1-1.012,1.122Zm1.048-5.7.121-.128v.9l-.662-.241a6.014,6.014,0,0,0,.52-.527Zm-21.679,6.1a21.63,21.63,0,0,0,2.63-3.955,26.192,26.192,0,0,0,3.911,4.618c-2.163-.274-4.352-.533-6.532-.654Z" transform="translate(-150.903 -260.314)"/>
        <path id="Path_130" data-name="Path 130" class="cls-16" d="M415.35,438.25l1.554.331,5.293,8.279-2.329.331Z" transform="translate(-119.442 -107.802)"/>
        <path id="Path_131" data-name="Path 131" class="cls-17" d="M414.49,645.428a33.377,33.377,0,0,0,1.554,4.28,36.816,36.816,0,0,0,5.166-1.556,17.153,17.153,0,0,0-1.077-1.508,5.364,5.364,0,0,0-1.461-1.183,3.806,3.806,0,0,0-1.775,0C416.1,645.428,415.3,645.441,414.49,645.428Z" transform="translate(-156.241 -281.393)"/>
        <path id="Path_132" data-name="Path 132" class="cls-16" d="M413.312,646.866a3.351,3.351,0,0,1-1.767-2.124A6.959,6.959,0,0,0,410.2,642.2a.777.777,0,0,0-.607.475c-.127.241-.2.512-.348.753-.285.43-.783.64-1.139,1s-.571.926-.955,1.3a3.673,3.673,0,0,1-1.8.753,11.286,11.286,0,0,0-2.849,1.107,4.8,4.8,0,0,1-1.048.5,3.928,3.928,0,0,1-1.226,0l-2.807-.21a2.07,2.07,0,0,0-.712,0,1.447,1.447,0,0,0-.89,1.508,2.288,2.288,0,0,0,.89,1.6,5.8,5.8,0,0,0,1.6.858,44.993,44.993,0,0,0,7.523,2.261v.583a12.443,12.443,0,0,0,5.734,1.408.922.922,0,0,0,.427-.076,1,1,0,0,0,.356-.584,24.706,24.706,0,0,0,1.176-6.449,5.428,5.428,0,0,0-.121-1.665c-.156-.535.37-.309-.113-.519" transform="translate(-150.875 -280.619)"/>
        <path id="Path_133" data-name="Path 133" class="cls-16" d="M473.619,632.772c-8.32.527-16.543-2.048-24.888-2.321a11.514,11.514,0,0,0-3.092.194,15.1,15.1,0,0,0-3.063,1.259c-4.468,2.2-9.091,4.023-13.707,5.836l-5.307,2.087a7.668,7.668,0,0,1-3.284.753c-.506,0-1.125-.113-1.416.331a5.779,5.779,0,0,0,.113,4.863c.186.49.5,1.025,1,1.078a2.774,2.774,0,0,0,1.012-.271c.961-.27,1.924.414,2.922.527a7.876,7.876,0,0,0,3.527-1.055,29.105,29.105,0,0,1,6.042-1.085,26.281,26.281,0,0,0,9.461-4.151,10.79,10.79,0,0,1,3.527-1.762,9.264,9.264,0,0,1,4.439.535,98.13,98.13,0,0,1,10.18,3.661,45.752,45.752,0,0,0,5.316,2.056,18.261,18.261,0,0,0,11.92-.753c1.331-.558,2.778-1.508,2.849-3.058a4.714,4.714,0,0,0-1.012-2.373c-.271-.475-.548-.949-.84-1.408C477.886,635.539,476.148,632.615,473.619,632.772Z" transform="translate(-157.351 -277.719)"/>
        <path id="Path_134" data-name="Path 134" class="cls-6" d="M473.619,632.772c-8.32.527-16.543-2.048-24.888-2.321a11.514,11.514,0,0,0-3.092.194,15.1,15.1,0,0,0-3.063,1.259c-4.468,2.2-9.091,4.023-13.707,5.836l-5.307,2.087a7.668,7.668,0,0,1-3.284.753c-.506,0-1.125-.113-1.416.331a5.779,5.779,0,0,0,.113,4.863c.186.49.5,1.025,1,1.078a2.774,2.774,0,0,0,1.012-.271c.961-.27,1.924.414,2.922.527a7.876,7.876,0,0,0,3.527-1.055,29.105,29.105,0,0,1,6.042-1.085,26.281,26.281,0,0,0,9.461-4.151,10.79,10.79,0,0,1,3.527-1.762,9.264,9.264,0,0,1,4.439.535,98.13,98.13,0,0,1,10.18,3.661,45.752,45.752,0,0,0,5.316,2.056,18.261,18.261,0,0,0,11.92-.753c1.331-.558,2.778-1.508,2.849-3.058a4.714,4.714,0,0,0-1.012-2.373c-.271-.475-.548-.949-.84-1.408C477.886,635.539,476.148,632.615,473.619,632.772Z" transform="translate(-157.351 -277.719)"/>
        <path id="Path_135" data-name="Path 135" class="cls-17" d="M436.92,644.8q1.953.7,3.94,1.3c.712-1.288,2.137-2.185,2.444-3.661a.375.375,0,0,0,0-.194.347.347,0,0,0-.15-.144,7.165,7.165,0,0,0-3.092-.957c-.856-.053-1.247.889-1.631,1.556C438.28,642.985,437.27,644.944,436.92,644.8Z" transform="translate(-162.693 -280.359)"/>
        <path id="Path_136" data-name="Path 136" class="cls-16" d="M434.286,644.095a2.846,2.846,0,0,1-1.916-1.333c-.178-.339-.378-.8-.749-.753s-.492.451-.571.805a23.6,23.6,0,0,1-1.077,3.91,7.309,7.309,0,0,1-2.3,3.2c-.484.354-1.012.619-1.5.994a10.366,10.366,0,0,1-1.261,1.009,7.223,7.223,0,0,1-.969.378,6.588,6.588,0,0,0-1.382.753,2.817,2.817,0,0,0-.947.957,1.447,1.447,0,0,0-.071,1.333,1.347,1.347,0,0,0,.919.663,3.671,3.671,0,0,0,1.147,0c1.517-.113,3.035-.257,4.553-.4a12.483,12.483,0,0,0,1.9-.278l.99-.286a7.5,7.5,0,0,1,1.732-.27,1.277,1.277,0,0,1,.506.053c.348.12.607.49.961.564a1.528,1.528,0,0,0,.712-.1,14.921,14.921,0,0,1,3.369-.369,1.391,1.391,0,0,0,1.311-.6c.285-.584-.186-1.243-.378-1.875a6.354,6.354,0,0,1-.156-1.227,7.809,7.809,0,0,0-.834-2.918,3.26,3.26,0,0,1-.641-2.381,2.348,2.348,0,0,0,.257-.821C437.79,643.8,434.984,644.26,434.286,644.095Z" transform="translate(-158.233 -280.574)"/>
        <path id="Path_137" data-name="Path 137" class="cls-17" d="M475.59,612.269a6.689,6.689,0,0,1-3.32-3.48c-.136-.331-.249-.685-.384-1.018a7.733,7.733,0,0,0-1.981-2.918.952.952,0,0,0-.712-.325.8.8,0,0,0-.534.611,2.461,2.461,0,0,0-.057.942,17.645,17.645,0,0,0,.356,2.2l.4,1.945a4.451,4.451,0,0,0,.249.866,2.975,2.975,0,0,0,.678.852c.37.362.749.708,1.125,1.054a3.37,3.37,0,0,0,1.973.913,10.4,10.4,0,0,1,4.731,1.928v-1.444a1.985,1.985,0,0,0-.356-1.047,6.176,6.176,0,0,0-2.171-1.079Z" transform="translate(-171.796 -271.335)"/>
        <path id="Path_138" data-name="Path 138" class="cls-6" d="M475.59,612.269a6.689,6.689,0,0,1-3.32-3.48c-.136-.331-.249-.685-.384-1.018a7.733,7.733,0,0,0-1.981-2.918.952.952,0,0,0-.712-.325.8.8,0,0,0-.534.611,2.461,2.461,0,0,0-.057.942,17.645,17.645,0,0,0,.356,2.2l.4,1.945a4.451,4.451,0,0,0,.249.866,2.975,2.975,0,0,0,.678.852c.37.362.749.708,1.125,1.054a3.37,3.37,0,0,0,1.973.913,10.4,10.4,0,0,1,4.731,1.928v-1.444a1.985,1.985,0,0,0-.356-1.047,6.176,6.176,0,0,0-2.171-1.079Z" transform="translate(-171.796 -271.335)"/>
        <ellipse id="Ellipse_50" data-name="Ellipse 50" class="cls-16" cx="2.023" cy="2.155" rx="2.023" ry="2.155" transform="translate(318.712 321.754)"/>
        <path id="Path_139" data-name="Path 139" class="cls-16" d="M494.784,590.458a2.094,2.094,0,0,0-1.6.241,2.344,2.344,0,0,0-.548.792,11.859,11.859,0,0,0-1.054,2.622c-.178.753-.2,1.605-.435,2.381a22.321,22.321,0,0,0-1.6,4.136c-.057.671.051,1.453-.4,1.906a2.614,2.614,0,0,1-.364.278,2.83,2.83,0,0,0-.8.866,2.838,2.838,0,0,1-.563.821c-.4.325-1.1.294-1.3.753s.32,1.086.2,1.626-.571.648-.89.949a3.355,3.355,0,0,0-.769,1.508,4.56,4.56,0,0,1-3.875-1.018,13.748,13.748,0,0,1,.607,4.686,2,2,0,0,1-.356,1.447,23.466,23.466,0,0,1,4.751.873,3.109,3.109,0,0,0,2.074,0,3.5,3.5,0,0,0,.955-.8,6.485,6.485,0,0,0,1.959-3.195,19.809,19.809,0,0,0,.037-2.161,12.79,12.79,0,0,1,.5-2.622,32.917,32.917,0,0,0,.9-5.41c.093-1.13,1.012-2.035,1.5-3.013a15.338,15.338,0,0,0,1.916-6.031C495.68,591.4,495.454,590.534,494.784,590.458Z" transform="translate(-175.301 -267.846)"/>
        <path id="Path_140" data-name="Path 140" class="cls-6" d="M494.784,590.458a2.094,2.094,0,0,0-1.6.241,2.344,2.344,0,0,0-.548.792,11.859,11.859,0,0,0-1.054,2.622c-.178.753-.2,1.605-.435,2.381a22.321,22.321,0,0,0-1.6,4.136c-.057.671.051,1.453-.4,1.906a2.614,2.614,0,0,1-.364.278,2.83,2.83,0,0,0-.8.866,2.838,2.838,0,0,1-.563.821c-.4.325-1.1.294-1.3.753s.32,1.086.2,1.626-.571.648-.89.949a3.355,3.355,0,0,0-.769,1.508,4.56,4.56,0,0,1-3.875-1.018,13.748,13.748,0,0,1,.607,4.686,2,2,0,0,1-.356,1.447,23.466,23.466,0,0,1,4.751.873,3.109,3.109,0,0,0,2.074,0,3.5,3.5,0,0,0,.955-.8,6.485,6.485,0,0,0,1.959-3.195,19.809,19.809,0,0,0,.037-2.161,12.79,12.79,0,0,1,.5-2.622,32.917,32.917,0,0,0,.9-5.41c.093-1.13,1.012-2.035,1.5-3.013a15.338,15.338,0,0,0,1.916-6.031C495.68,591.4,495.454,590.534,494.784,590.458Z" transform="translate(-175.301 -267.846)"/>
        <path id="Path_141" data-name="Path 141" class="cls-16" d="M481.006,630.069a19.061,19.061,0,0,1-4.4-3.891c-2.671-2.659-5.941-4.521-8.755-7.029a62.646,62.646,0,0,0-5.578-4.957,13.45,13.45,0,0,0-5.977-2.208,1.5,1.5,0,0,0-.712,0,1.654,1.654,0,0,0-.678.564,22.757,22.757,0,0,0-2.416,3.5c-3.561,6.4-8.628,11.783-12.824,17.736a1.148,1.148,0,0,0-.2.422,1.094,1.094,0,0,0,.156.655l.856,1.763c.477.994,1.246,2.14,2.272,1.945a2.477,2.477,0,0,0,1.19-.805l3.832-3.881,4.018-4.062a32.2,32.2,0,0,0,6.283-7.85c1.2,2.2,3.326,3.64,4.781,5.642.556.753,1.012,1.6,1.509,2.418.791,1.3,1.7,2.517,2.594,3.766l4.609,6.225a9.088,9.088,0,0,0,2.137,2.26,7.818,7.818,0,0,0,3.7,1.047,46.257,46.257,0,0,0,5.208.194,8.548,8.548,0,0,0,3.883-.753,3.728,3.728,0,0,0,2.1-3.307,5.039,5.039,0,0,0-.662-2.056,16.365,16.365,0,0,0-6.92-7.342Z" transform="translate(-163.419 -273.162)"/>
        <ellipse id="Ellipse_51" data-name="Ellipse 51" class="cls-18" cx="1.56" cy="1.657" rx="1.56" ry="1.657" transform="translate(320.422 323.743)"/>
        <path id="Path_142" data-name="Path 142" class="cls-17" d="M502.61,590.838a3.338,3.338,0,0,1,.172,2.381,9.9,9.9,0,0,1-1.012,2.192,10.457,10.457,0,0,1-1.3,1.959,12.883,12.883,0,0,0,6.853-2.079,10.154,10.154,0,0,0,4.324-3.986,1.9,1.9,0,0,1-1.6-.317,5.843,5.843,0,0,1-1.214-1.2l-1.214-1.432a5.729,5.729,0,0,1-.712-1.033,2.987,2.987,0,0,1-.32-1.665,9.3,9.3,0,0,1-1.6,1.4c-.862.6-1.809,1.025-2.679,1.613-.3.21-.983.543-.809.973S502.369,590.384,502.61,590.838Z" transform="translate(-180.97 -266.681)"/>
        <path id="Path_143" data-name="Path 143" class="cls-6" d="M502.61,590.838a3.338,3.338,0,0,1,.172,2.381,9.9,9.9,0,0,1-1.012,2.192,10.457,10.457,0,0,1-1.3,1.959,12.883,12.883,0,0,0,6.853-2.079,10.154,10.154,0,0,0,4.324-3.986,1.9,1.9,0,0,1-1.6-.317,5.843,5.843,0,0,1-1.214-1.2l-1.214-1.432a5.729,5.729,0,0,1-.712-1.033,2.987,2.987,0,0,1-.32-1.665,9.3,9.3,0,0,1-1.6,1.4c-.862.6-1.809,1.025-2.679,1.613-.3.21-.983.543-.809.973S502.369,590.384,502.61,590.838Z" transform="translate(-180.97 -266.681)"/>
        <path id="Path_144" data-name="Path 144" class="cls-18" d="M499.687,592.773a2.259,2.259,0,0,0,0,2.486c.071.09.328.656.435.663a.385.385,0,0,0,.271-.15,18.729,18.729,0,0,0,1.526-1.922,3.382,3.382,0,0,1,1.938-1.342,4.036,4.036,0,0,1,2.671.881,2.56,2.56,0,0,1,.919.753,2.746,2.746,0,0,1,.3,1.078,54.888,54.888,0,0,1,.271,6.848,28.517,28.517,0,0,1-.305,4.935c-.156.836-.385,1.658-.492,2.509a16.925,16.925,0,0,0-.1,2.26v3.15a8.757,8.757,0,0,0,.113,1.726c.142.685.449,1.327.656,2a13.718,13.718,0,0,1,.435,2.357l.4,3.255a4.319,4.319,0,0,1-.364,3.013c-.263.37-.607.671-.884,1.039-1.012,1.387-.712,3.367-1.1,5.058a6.354,6.354,0,0,1-1.953,3.165,3.127,3.127,0,0,1-2.572.973c-1.254-.249-2-1.628-2.343-2.932a12.192,12.192,0,0,0-1.214-3.821,9.727,9.727,0,0,0-2.379-2.1,4.322,4.322,0,0,1-1.86-2.554c-.079-.475,0-.973-.079-1.447a3.392,3.392,0,0,0-1.987-2.764c-.641-.263-1.416-.362-1.795-.973a4.559,4.559,0,0,0,1.874-2.659,14.386,14.386,0,0,0,.455-3.36l.214-3.766a13.223,13.223,0,0,1,.848-4.889c.314-.679.712-1.319,1.034-1.988a22.327,22.327,0,0,0,1.1-2.918c.514-1.556,1.026-3.113,1.481-4.669a9.11,9.11,0,0,1,.809-2.177C498.412,593.775,498.968,592.923,499.687,592.773Z" transform="translate(-178.019 -268.367)"/>
        <path id="Path_145" data-name="Path 145" class="cls-16" d="M492.32,617.14h.947l.2-1.508a3.288,3.288,0,0,1,.2-.881,5.3,5.3,0,0,1,.548-.844,11.536,11.536,0,0,0,1.09-4.935,26.106,26.106,0,0,1,2.08-6.449l1.837-4.332a6.192,6.192,0,0,0,.4-1.107,7.008,7.008,0,0,0,.113-1.28c0-.671.2-3.113.221-3.766,0-.249-.52-.113-.627-.331-.229-.482-.542.821-.975,1.107a2.541,2.541,0,0,0-.848,1.311c-.4,1.085-.641,2.26-1.012,3.338a6.894,6.894,0,0,1-1.718,2.953c-.378.346-.809.625-1.167,1a7.04,7.04,0,0,0-1.289,4.784C492.289,607.24,492.105,617.14,492.32,617.14Z" transform="translate(-178.593 -268.143)"/>
        <path id="Path_146" data-name="Path 146" class="cls-16" d="M508.01,590.439a3.411,3.411,0,0,0-1.688,2.449,12.922,12.922,0,0,1-.856,3.013c-1.153,2.124-4.1,2.743-4.915,5.04a9.763,9.763,0,0,0-.328,2.373c-.142,1.65-.656,3.239-.809,4.883a22.985,22.985,0,0,0,.085,3.834l1.034,12.973a18.3,18.3,0,0,1-.306,5.712,4.952,4.952,0,0,0,3.092-.543c.961-.467,1.845-1.107,2.778-1.65a28.237,28.237,0,0,0,4.767-2.832,3.033,3.033,0,0,0,.641-.753,6.816,6.816,0,0,0,.427-1.7,9.513,9.513,0,0,1,.463-1.34,41.236,41.236,0,0,0,1.339-4.007,24.17,24.17,0,0,0,.607-2.743c.113-.753.178-1.508.235-2.26a13.928,13.928,0,0,1,.656-3.428,29.02,29.02,0,0,0,1.5-8.227,4.553,4.553,0,0,0-.079-1.206,6.616,6.616,0,0,0-.627-1.379c-.427-.852-.712-1.786-1.083-2.651a12.758,12.758,0,0,0-4.211-4.669C509.912,590.717,508.939,590.075,508.01,590.439Z" transform="translate(-180.648 -267.834)"/>
        <path id="Path_147" data-name="Path 147" class="cls-17" d="M476.787,617.138a7.493,7.493,0,0,1-1.959-1.576c-.257-.317-.469-.671-.712-.986a4.8,4.8,0,0,0-2.464-1.508,11.436,11.436,0,0,0-2.849-.294,4.906,4.906,0,0,0-1.9.241,2.008,2.008,0,0,0-1.261,1.432,2.425,2.425,0,0,0,.961,2.109,4.432,4.432,0,0,0,1.916.973,14.545,14.545,0,0,0,1.732.218,24.473,24.473,0,0,1,9.433,4.12q3.933,2.365,8.023,4.4a18.608,18.608,0,0,0,.136-2.6c0-.648-.051-1.642-.627-2.027a12.067,12.067,0,0,0-2.55-.805,38.926,38.926,0,0,1-5.137-2.2,25.176,25.176,0,0,1-2.74-1.5Z" transform="translate(-170.948 -273.363)"/>
        <ellipse id="Ellipse_52" data-name="Ellipse 52" class="cls-17" cx="6.07" cy="6.457" rx="6.07" ry="6.457" transform="translate(314.665 310.504)"/>
        <path id="Path_148" data-name="Path 148" class="cls-16" d="M507.892,599.913a10.485,10.485,0,0,0-1.176,2.334c-.712,1.628-1.924,3.013-2.515,4.739s-.607,3.939-1.821,5.35a1.881,1.881,0,0,0-.534.813,4.11,4.11,0,0,1-.057.583c-.178.512-.969.535-1.119,1.062a2.664,2.664,0,0,1-.071.467c-.121.339-.548.389-.826.6-.591.422-.469,1.4-.89,2.012a1.555,1.555,0,0,1-1.518.564,5.171,5.171,0,0,1-1.574-.624,1.453,1.453,0,0,0-.571-.195,1.134,1.134,0,0,0-.656.241,4.367,4.367,0,0,0-1.639,3.653,12.5,12.5,0,0,0,.941,4.085,1.676,1.676,0,0,0,.306.611,1.3,1.3,0,0,0,1.509.121,6.93,6.93,0,0,1,1.475-.7c.941-.181,1.86.5,2.815.444a3.809,3.809,0,0,0,1.9-.881,10.635,10.635,0,0,0,2.549-2.26c.4-.584.712-1.235,1.082-1.854a23.7,23.7,0,0,1,1.532-2.163l3.5-4.521a10.414,10.414,0,0,0,.941-1.362,10.026,10.026,0,0,0,.712-2.072,16.667,16.667,0,0,0,.712-3.684,14.953,14.953,0,0,0-.257-3.089,11.435,11.435,0,0,0-.712-2.945C511.178,599.536,509.325,598.148,507.892,599.913Z" transform="translate(-178.8 -269.992)"/>
        <path id="Path_149" data-name="Path 149" class="cls-19" d="M518.714,582.14a7.374,7.374,0,0,0-2.807-5.877A8.442,8.442,0,0,0,509,567.9a7.824,7.824,0,0,0-15.538.446c-2.521-.6-4.83.181-5.251,1.823s1.36,3.766,4.018,4.521a7.1,7.1,0,0,0,2.58.272,7.849,7.849,0,0,0,5.429,3.579A8.362,8.362,0,0,0,506.169,585a7.191,7.191,0,0,0,1.821,2.675v.624a4.9,4.9,0,0,0,2.416,4.686,5.336,5.336,0,0,0,5.44,0,4.9,4.9,0,0,0,2.416-4.686,6.077,6.077,0,0,0-.492-2.4,7.59,7.59,0,0,0,.943-3.76Z" transform="translate(-177.425 -260.642)"/>
        <path id="Path_150" data-name="Path 150" class="cls-6" d="M489.923,570.509c.421-1.642,2.73-2.426,5.251-1.823a8.163,8.163,0,0,1,7.837-7.142h.52a7.34,7.34,0,0,0-2.238-.354,8.163,8.163,0,0,0-7.837,7.143c-2.521-.6-4.83.181-5.251,1.823s1.362,3.766,4.019,4.521a7.443,7.443,0,0,0,1.526.278C491.2,574.147,489.5,572.188,489.923,570.509Z" transform="translate(-177.423 -260.643)"/>
        <path id="Path_151" data-name="Path 151" class="cls-6" d="M512.426,593.211a5.976,5.976,0,0,1,0-.619,7.032,7.032,0,0,1-1.821-2.675,8.34,8.34,0,0,1-5.927-6.472,7.829,7.829,0,0,1-5.435-3.572,6.465,6.465,0,0,1-1.518-.045,7.848,7.848,0,0,0,5.237,3.292,8.362,8.362,0,0,0,5.927,6.465,7.191,7.191,0,0,0,1.821,2.675v.624a5.4,5.4,0,0,0,5.109,5.62A5.624,5.624,0,0,1,512.426,593.211Z" transform="translate(-180.17 -265.243)"/>
        <path id="Path_152" data-name="Path 152" class="cls-17" d="M.989,0c.526-.014.938.552.919,1.266S1.446,2.57.92,2.584-.018,2.031,0,1.317.462.014.989,0Z" transform="translate(321.225 317.83) rotate(-37.22)"/>
      </g>
    </g>
  </g>
</svg>
