<svg xmlns="http://www.w3.org/2000/svg" xmlns:xlink="http://www.w3.org/1999/xlink" width="861" height="615" viewBox="0 0 861 615">
  <defs>
    <style>
      .cls-1 {
        clip-path: url(#clip-Intro_Image);
      }

      .cls-2 {
        fill: #ffcdb2;
        opacity: 0.27;
      }

      .cls-3 {
        fill: #3f3d56;
      }

      .cls-4 {
        fill: #e5989b;
      }

      .cls-5 {
        opacity: 0.7;
      }

      .cls-6 {
        fill: url(#linear-gradient);
      }

      .cls-7 {
        fill: #ffb4a2;
      }

      .cls-8 {
        opacity: 0.1;
      }

      .cls-9 {
        fill: #e0e0e0;
      }

      .cls-10 {
        fill: #fda57d;
      }

      .cls-11 {
        fill: #535461;
      }

      .cls-12 {
        fill: #fff;
      }

      .cls-13 {
        fill: #eee;
      }
    </style>
    <linearGradient id="linear-gradient" x1="0.5" y1="1" x2="0.5" gradientUnits="objectBoundingBox">
      <stop offset="0" stop-color="gray" stop-opacity="0.251"/>
      <stop offset="0.535" stop-color="gray" stop-opacity="0.122"/>
      <stop offset="1" stop-color="gray" stop-opacity="0.102"/>
    </linearGradient>
    <clipPath id="clip-Intro_Image">
      <rect width="861" height="615"/>
    </clipPath>
  </defs>
  <g id="Intro_Image" data-name="Intro Image" class="cls-1">
    <g id="My_Intro_Image" data-name="My Intro Image" transform="translate(-107 -1287)">
      <path id="Path_85" data-name="Path 85" class="cls-2" d="M424.25,0C658.557,0,848.5,181.749,848.5,405.948S689.609,599.273,455.3,599.273,0,630.146,0,405.948,189.943,0,424.25,0Z" transform="translate(107 1287)"/>
      <g id="undraw_Designer_by46" transform="translate(168 1323.138)">
        <path id="Path_68" data-name="Path 68" class="cls-3" d="M250.15,643.472c-5.23,19.917-23.557,32.364-23.557,32.364s-9.847-19.845-4.617-39.763,23.557-32.364,23.557-32.364S255.38,623.555,250.15,643.472Z" transform="translate(-140.946 -240.746)"/>
        <path id="Path_69" data-name="Path 69" class="cls-4" d="M244.057,645.869c-14.649,14.473-16.288,36.566-16.288,36.566s22.112-1.371,36.761-15.844,16.288-36.566,16.288-36.566S258.705,631.4,244.057,645.869Z" transform="translate(-142.785 -247.356)"/>
        <rect id="Rectangle_19" data-name="Rectangle 19" class="cls-4" width="80.062" height="34.069" rx="15.198" transform="translate(50.96 429.258)"/>
        <g id="Group_5" data-name="Group 5" class="cls-5" transform="translate(609.189 395.219)">
          <path id="Path_70" data-name="Path 70" class="cls-6" d="M989.183,659.06V646.785H927.8v56.777a11.969,11.969,0,0,0,11.969,11.969h37.442a11.969,11.969,0,0,0,11.969-11.969V690.979a15.959,15.959,0,0,0,0-31.918Zm0,25.78V665.2a9.821,9.821,0,0,1,0,19.642Z" transform="translate(-927.805 -646.785)"/>
        </g>
        <path id="Path_71" data-name="Path 71" class="cls-7" d="M1002.253,665.744a14.571,14.571,0,1,0,14.571,14.571,14.571,14.571,0,0,0-14.571-14.571Zm0,23.538a8.967,8.967,0,1,1,8.967-8.967,8.967,8.967,0,0,1-8.967,8.967Z" transform="translate(-333.655 -256.328)"/>
        <path id="Path_72" data-name="Path 72" class="cls-8" d="M1002.253,665.744a14.571,14.571,0,1,0,14.571,14.571,14.571,14.571,0,0,0-14.571-14.571Zm0,23.538a8.967,8.967,0,1,1,8.967-8.967,8.967,8.967,0,0,1-8.967,8.967Z" transform="translate(-333.655 -256.328)"/>
        <path id="Path_73" data-name="Path 73" class="cls-4" d="M818.016,531.776h56.043v55.467a7.3,7.3,0,0,1-7.3,7.3H825.317a7.3,7.3,0,0,1-7.3-7.3Z" transform="translate(-205.464 -133.568)"/>
        <rect id="Rectangle_20" data-name="Rectangle 20" class="cls-9" width="727.44" height="24.659" transform="translate(0 460.976)"/>
        <g id="Group_6" data-name="Group 6" class="cls-5" transform="translate(232.434 0)">
          <path id="Path_74" data-name="Path 74" class="cls-6" d="M670.721,414.985c-7.8-28.3-52-48.965-85.255-53.547,0-.209.016-.416.016-.626V336.587l.107-.037v-.918a83.074,83.074,0,0,0,50.18-52.591,89.747,89.747,0,0,0,5.354-11.544c3.55-1.293,6.232-7.147,6.232-14.182a24.761,24.761,0,0,0-1-7.11,91.016,91.016,0,0,0,.666-10.8,89.993,89.993,0,0,0-29.726-66.932,17.563,17.563,0,0,0,.281-4.4c-.752-11.627-13.171-19.526-24.811-20.055a24.562,24.562,0,0,0,4.142-25.937c-7.422,10.813-22.658,11.962-35.773,12.047,5.659-2.191,8.205-10.032,4.914-15.13-13.706,18.372-40.425,21.774-56.728,37.886a47.823,47.823,0,0,0-8.821,12.031,90.04,90.04,0,0,0-33.936,70.491,91.014,91.014,0,0,0,.653,10.7,24.683,24.683,0,0,0-1.033,7.208c0,7.067,2.707,12.94,6.281,14.2a89.76,89.76,0,0,0,5.379,11.582A83.057,83.057,0,0,0,527.668,335.5v25.312c0,.195.011.387.015.581-33.384,4.5-77.937,25.331-85.664,53.858-6.673,24.635-13.8,51.69-17.34,67.575,30.379,21.346,94.122,33.879,134.071,33.879,37.956,0,99.993-11.313,129.477-30.749C685.032,468.5,677.684,440.26,670.721,414.985Z" transform="translate(-424.678 -119)"/>
        </g>
        <path id="Path_75" data-name="Path 75" class="cls-4" d="M560.229,590.172c36.615,0,96.459-10.913,124.9-29.663-3.081-16.837-10.169-44.082-16.886-68.464-8.555-31.052-62.548-52.58-94.756-52.58H542.45c-32.309,0-86.379,21.652-94.827,52.837-6.437,23.765-13.309,49.864-16.728,65.187C460.2,578.08,521.693,590.172,560.229,590.172Z" transform="translate(-193.805 -199.492)"/>
        <circle id="Ellipse_3" data-name="Ellipse 3" class="cls-3" cx="87.041" cy="87.041" r="87.041" transform="translate(277.493 36.139)"/>
        <path id="Path_76" data-name="Path 76" class="cls-8" d="M449.291,261.311h55.772v44.617a27.886,27.886,0,0,1-27.886,27.886h0a27.886,27.886,0,0,1-27.886-27.886V261.311Z" transform="translate(-112.85 -65.634)"/>
        <path id="Path_77" data-name="Path 77" class="cls-10" d="M457.291,258.553h39.772a8,8,0,0,1,8,8V303.17a27.886,27.886,0,0,1-27.886,27.886h0a27.886,27.886,0,0,1-27.886-27.886V266.553A8,8,0,0,1,457.291,258.553Z" transform="translate(-112.85 -64.942)"/>
        <path id="Path_78" data-name="Path 78" class="cls-8" d="M563.709,406.188a80.268,80.268,0,0,0,55.772.154v-6.851H563.709Z" transform="translate(-227.165 -189.452)"/>
        <circle id="Ellipse_4" data-name="Ellipse 4" class="cls-10" cx="79.939" cy="79.939" r="79.939" transform="translate(284.594 60.591)"/>
        <path id="Path_79" data-name="Path 79" class="cls-8" d="M525.046,202.819s33.69,68.385,128.725,28.661l-22.125-34.7-39.221-14.079Z" transform="translate(-217.453 -135.001)"/>
        <path id="Path_80" data-name="Path 80" class="cls-3" d="M525.046,201.475s33.69,68.385,128.724,28.661l-22.124-34.7-39.221-14.079Z" transform="translate(-217.453 -134.664)"/>
        <path id="Path_81" data-name="Path 81" class="cls-3" d="M524.087,183.548a46.178,46.178,0,0,1,11.446-18.618c15.726-15.543,41.5-18.825,54.723-36.547,3.175,4.918.718,12.482-4.74,14.6,12.651-.082,27.349-1.191,34.509-11.621a23.694,23.694,0,0,1-4,25.02c11.228.51,23.208,8.13,23.934,19.346.484,7.472-4.2,14.547-10.342,18.832s-13.57,6.253-20.882,7.865C587.394,207.127,510.159,226.853,524.087,183.548Z" transform="translate(-216.794 -121.357)"/>
        <path id="Path_82" data-name="Path 82" class="cls-3" d="M654.221,307.6H652.1L610.87,344.309c-39.724-18.6-68.888,0-68.888,0l-43.244-35.2-4.36.548A79.933,79.933,0,1,0,654.23,307.6Zm-80.059,50.786c-15.551,0-28.158-3.152-28.158-7.04s12.607-7.04,28.158-7.04,28.158,3.152,28.158,7.04S589.714,358.388,574.162,358.388Z" transform="translate(-209.75 -166.372)"/>
        <ellipse id="Ellipse_5" data-name="Ellipse 5" class="cls-10" cx="7.436" cy="13.943" rx="7.436" ry="13.943" transform="translate(277.126 126.511)"/>
        <ellipse id="Ellipse_6" data-name="Ellipse 6" class="cls-10" cx="7.436" cy="13.943" rx="7.436" ry="13.943" transform="translate(437.026 126.511)"/>
        <g id="Group_7" data-name="Group 7" class="cls-5" transform="translate(209.041 282.835)">
          <rect id="Rectangle_21" data-name="Rectangle 21" class="cls-6" width="309.358" height="178.141" rx="14.5"/>
        </g>
        <rect id="Rectangle_22" data-name="Rectangle 22" class="cls-11" width="298.15" height="174.855" rx="26.835" transform="translate(214.645 286.121)"/>
        <circle id="Ellipse_7" data-name="Ellipse 7" class="cls-12" cx="10.088" cy="10.088" r="10.088" transform="translate(353.632 363.461)"/>
        <rect id="Rectangle_23" data-name="Rectangle 23" class="cls-9" width="665.793" height="10.088" transform="translate(30.824 485.636)"/>
        <rect id="Rectangle_24" data-name="Rectangle 24" class="cls-8" width="665.793" height="3.363" transform="translate(30.824 485.636)"/>
        <path id="Path_83" data-name="Path 83" class="cls-8" d="M990,650.776v51.84a10.928,10.928,0,0,1-10.928,10.928h5.6A10.928,10.928,0,0,0,995.6,702.616v-51.84Z" transform="translate(-331.493 -252.568)"/>
        <path id="Path_84" data-name="Path 84" class="cls-13" d="M946.163,594.5a3.273,3.273,0,0,0-2.475,1.257c-.735,1.333.6,2.835,1.813,3.751,2.246,1.692,4.613,3.353,6.14,5.715s2.006,5.656.337,7.92c-2.179,2.955-7.378,3.59-7.881,7.227-.323,2.335,1.7,4.327,3.741,5.5,5.048,2.892,11.556,3.663,15.212,8.188,1.513-3.11,4.9-4.908,8.268-5.676s6.877-.711,10.3-1.231c1.1-.168,2.347-.505,2.841-1.507.956-1.94-1.768-4.266-.828-6.214.716-1.482,2.818-1.367,4.353-1.961,2.5-.967,3.53-4.184,2.821-6.768s-2.714-4.6-4.821-6.26c-5.679-4.463-12.508-7.087-19.415-8.975-3.212-.878-6.983-2.255-10.32-2.388C953.025,592.946,949.352,593.953,946.163,594.5Z" transform="translate(-322.552 -238.072)"/>
      </g>
    </g>
  </g>
</svg>
