<svg xmlns="http://www.w3.org/2000/svg" xmlns:xlink="http://www.w3.org/1999/xlink" width="801" height="710" viewBox="0 0 801 710">
  <defs>
    <style>
      .cls-1 {
        clip-path: url(#clip-Main_Svg_Image);
      }

      .cls-2 {
        fill: #b5838d;
        opacity: 0.85;
      }

      .cls-3, .cls-8 {
        opacity: 0.1;
      }

      .cls-4 {
        fill: #404040;
      }

      .cls-5 {
        fill: #3f3d56;
      }

      .cls-6 {
        fill: #65617d;
      }

      .cls-7 {
        opacity: 0.2;
      }

      .cls-9 {
        fill: #ffcdb2;
      }

      .cls-10 {
        fill: #e5989b;
      }

      .cls-11 {
        fill: #e4979a;
      }

      .cls-12 {
        fill: #fbbebe;
      }

      .cls-13 {
        fill: none;
        stroke: #404040;
        stroke-miterlimit: 10;
        stroke-width: 1.373px;
      }

      .cls-14 {
        filter: url(#Ellipse_9);
      }
    </style>
    <filter id="Ellipse_9" x="-113.5" y="384.5" width="1029" height="402" filterUnits="userSpaceOnUse">
      <feOffset dy="35" input="SourceAlpha"/>
      <feGaussianBlur stdDeviation="49.5" result="blur"/>
      <feFlood/>
      <feComposite operator="in" in2="blur"/>
      <feComposite in="SourceGraphic"/>
    </filter>
    <clipPath id="clip-Main_Svg_Image">
      <rect width="801" height="710"/>
    </clipPath>
  </defs>
  <g id="Main_Svg_Image" data-name="Main Svg Image" class="cls-1">
    <g id="Main_Svg" data-name="Main Svg" transform="translate(-1146.101 -440)">
      <g class="cls-14" transform="matrix(1, 0, 0, 1, 1146.1, 440)">
        <ellipse id="Ellipse_9-2" data-name="Ellipse 9" class="cls-2" cx="366" cy="52.5" rx="366" ry="52.5" transform="translate(35 498)"/>
      </g>
      <g id="Group_3" data-name="Group 3" transform="translate(1199.633 465.01)">
        <g id="undraw_programming_2svr" transform="translate(0 0)">
          <g id="Group_1" data-name="Group 1" class="cls-3" transform="translate(0 0)">
            <path id="Path_5" data-name="Path 5" class="cls-4" d="M774.5,203.087H113.013q2.951-5.868,6-11.444v-.083H772.85Q773.8,197.208,774.5,203.087Z" transform="translate(-113.013 -96.111)"/>
            <path id="Path_7" data-name="Path 7" class="cls-4" d="M535.78,128.1V659.371l-10.475.119V130.371C528.78,129.6,532.266,128.83,535.78,128.1Z" transform="translate(3.4 -128.104)"/>
            <path id="Path_8" data-name="Path 8" class="cls-4" d="M352.464,162.3V645.038L342,645.157V161.775C345.493,162.012,348.988,162.151,352.464,162.3Z" transform="translate(-48.358 -110.754)"/>
            <path id="Path_9" data-name="Path 9" class="cls-4" d="M723.571,424.671q-1.886,5.9-3.723,11.569H64.48q-1.348-5.712-2.515-11.569Z" transform="translate(-36.308 2.48)"/>
          </g>
          <rect id="Rectangle_7" data-name="Rectangle 7" class="cls-5" width="17.899" height="59.989" transform="translate(119.019 249.501)"/>
          <rect id="Rectangle_8" data-name="Rectangle 8" class="cls-5" width="17.899" height="63.464" transform="translate(553.37 246.444)"/>
          <path id="Path_10" data-name="Path 10" class="cls-6" d="M738.632,376.483v13.525l-133.614,1.456-1.425.031-50.782.551-1.214.021-15.435.156H535.7l-94.089,1.03-154.45,1.7h-.132l-39.27.437-.422.01L72.847,397.291V381.685l41.029-29.131,82.322-.811,1.759-.01.581-.01,1.759-.031,39.525-.385,1.768-.01.563-.01,1.759-.01,12.674-.125.334-.01,31.266-.312h.255l243.974-2.434,5.972-.052h.6l4.556-.052,33.113-.323,1.759-.031,1.627-.021h.844l10.3-.094,2.041-.031,2.735-.021,8.575-.094,13.606-.135,1.759-.021,3.061-.021h.572l65.708-.666Z" transform="translate(-53.215 139.932)"/>
          <path id="Path_11" data-name="Path 11" class="cls-7" d="M738.632,376.483v13.525l-133.614,1.456-1.425.031-50.782.551-1.214.021-15.435.156H535.7l-94.089,1.03-154.45,1.7h-.132l-39.27.437-.422.01L72.847,397.291V381.685l41.029-29.131,82.322-.811,1.759-.01.581-.01,1.759-.031,39.525-.385,1.768-.01.563-.01,1.759-.01,12.674-.125.334-.01,31.266-.312h.255l243.974-2.434,5.972-.052h.6l4.556-.052,33.113-.323,1.759-.031,1.627-.021h.844l10.3-.094,2.041-.031,2.735-.021,8.575-.094,13.606-.135,1.759-.021,3.061-.021h.572l65.708-.666Z" transform="translate(-53.215 139.932)"/>
          <path id="Path_12" data-name="Path 12" class="cls-5" d="M269.824,450.8v25.479a6.46,6.46,0,0,1-3.3,5.764,5.223,5.223,0,0,1-2.355.624l-32.878.77a5.2,5.2,0,0,1-2.544-.593,6.438,6.438,0,0,1-3.363-5.8V450.8Z" transform="translate(-81.78 13.61)"/>
          <path id="Path_13" data-name="Path 13" class="cls-8" d="M269.824,450.8v25.479a6.46,6.46,0,0,1-3.3,5.764,5.223,5.223,0,0,1-2.355.624l-32.878.77a5.2,5.2,0,0,1-2.544-.593,6.438,6.438,0,0,1-3.363-5.8V450.8Z" transform="translate(-81.78 13.61)"/>
          <path id="Path_14" data-name="Path 14" class="cls-5" d="M271.2,450.8v25.479a6.46,6.46,0,0,1-3.3,5.764,5.222,5.222,0,0,1-2.355.624l-32.878.77a5.2,5.2,0,0,1-2.544-.593,6.438,6.438,0,0,1-3.363-5.8V450.8Z" transform="translate(-81.398 13.61)"/>
          <rect id="Rectangle_9" data-name="Rectangle 9" class="cls-5" width="44.437" height="32.772" transform="translate(522.655 464.406)"/>
          <rect id="Rectangle_10" data-name="Rectangle 10" class="cls-8" width="44.437" height="32.772" transform="translate(522.655 464.406)"/>
          <rect id="Rectangle_11" data-name="Rectangle 11" class="cls-5" width="44.437" height="32.772" transform="translate(520.9 464.406)"/>
          <path id="Path_15" data-name="Path 15" class="cls-8" d="M163.182,182.51v5.961l-17.9-.51V182.51Z" transform="translate(-26.264 68.23)"/>
          <path id="Path_16" data-name="Path 16" class="cls-6" d="M354.273,196.523,332.766,367.146a4.194,4.194,0,0,1-4.117,3.86l-172.207-4.931-3.269-.094a3.914,3.914,0,0,1-2.984-1.567,4.8,4.8,0,0,1-.935-3.5L173.4,182.3a4.164,4.164,0,0,1,4.277-3.777L350.5,191.446a3.929,3.929,0,0,1,2.892,1.626,4.8,4.8,0,0,1,.876,3.451Z" transform="translate(-99.542 -102.129)"/>
          <path id="Path_17" data-name="Path 17" class="cls-9" d="M125.73,68.082,107.52,225.524l158.264,5.545,19.463-151.9Z" transform="translate(-40.314 15.381)"/>
          <rect id="Rectangle_12" data-name="Rectangle 12" class="cls-6" width="192.809" height="180.33" rx="3.66" transform="translate(257.35 80.937)"/>
          <rect id="Rectangle_13" data-name="Rectangle 13" class="cls-9" width="175.221" height="150.159" transform="translate(266.455 92.762)"/>
          <path id="Path_18" data-name="Path 18" class="cls-8" d="M514.257,180.45v3.943l-17.9.406V180.45Z" transform="translate(57.012 67.339)"/>
          <path id="Path_19" data-name="Path 19" class="cls-6" d="M676.24,359.11a3.414,3.414,0,0,1-.754,2.372,2.791,2.791,0,0,1-2.072,1.041l-176.352,4.026a3.022,3.022,0,0,1-2.949-2.9L478.956,189.61a3.429,3.429,0,0,1,.7-2.4,2.808,2.808,0,0,1,2.055-1.1l175.014-9.613,1.884-.1a3,3,0,0,1,3.033,2.913Z" transform="translate(-24.21 -103.227)"/>
          <path id="Path_20" data-name="Path 20" class="cls-9" d="M431.818,73.779,591.656,65.1l13.5,158.139L446.58,227.4Z" transform="translate(32.999 15.991)"/>
          <path id="Path_21" data-name="Path 21" class="cls-8" d="M628.031,359.11a3.414,3.414,0,0,1-.754,2.372,2.791,2.791,0,0,1-2.072,1.041L608.512,176.491l1.884-.1a3,3,0,0,1,3.033,2.913Z" transform="translate(23.999 -103.227)"/>
          <path id="Path_22" data-name="Path 22" class="cls-8" d="M177.7,178.518,156.442,366.079l-3.269-.094a3.913,3.913,0,0,1-2.984-1.567,4.8,4.8,0,0,1-.935-3.5L173.4,182.305A4.163,4.163,0,0,1,177.7,178.518Z" transform="translate(-99.542 -102.133)"/>
          <rect id="Rectangle_14" data-name="Rectangle 14" class="cls-8" width="17.899" height="17.77" transform="translate(119.019 290.81)"/>
          <path id="Path_23" data-name="Path 23" class="cls-8" d="M216.723,332.07v5.171l-44.436,1.311V332.07Z" transform="translate(-26.924 132.325)"/>
          <path id="Path_24" data-name="Path 24" class="cls-6" d="M367.27,334.58V509.573a3.992,3.992,0,0,1-3.627,4.109L183.1,518.989h-.047a3.98,3.98,0,0,1-3.721-4.11V334.58a3.98,3.98,0,0,1,3.721-4.109h180.5a3.98,3.98,0,0,1,3.721,4.109Z" transform="translate(-88.338 -48.393)"/>
          <path id="Path_25" data-name="Path 25" class="cls-8" d="M183.1,330.47V518.989h-.047a3.98,3.98,0,0,1-3.721-4.11V334.58a3.98,3.98,0,0,1,3.721-4.109Z" transform="translate(-88.338 -48.393)"/>
          <path id="Path_26" data-name="Path 26" class="cls-10" d="M133.611,219.126H300.825V373.363l-167.214,4.162Z" transform="translate(-30.607 79.337)"/>
          <rect id="Rectangle_15" data-name="Rectangle 15" class="cls-8" width="17.899" height="18.124" transform="translate(553.37 290.801)"/>
          <path id="Path_27" data-name="Path 27" class="cls-8" d="M510.584,332.07v6.669l-44.437-1.311V332.07Z" transform="translate(54.752 132.325)"/>
          <path id="Path_28" data-name="Path 28" class="cls-6" d="M646.723,334.58v180.3a3.974,3.974,0,0,1-3.768,4.11h0l-180.582-5.306a3.993,3.993,0,0,1-3.627-4.11V334.58a3.98,3.98,0,0,1,3.721-4.109h180.5a3.975,3.975,0,0,1,3.759,4.109Z" transform="translate(-31.724 -48.393)"/>
          <path id="Path_29" data-name="Path 29" class="cls-8" d="M596.77,334.58v180.3a3.974,3.974,0,0,1-3.768,4.11h0V330.47h0a3.974,3.974,0,0,1,3.768,4.11Z" transform="translate(18.228 -48.393)"/>
          <path id="Path_30" data-name="Path 30" class="cls-11" d="M577.864,219.126H410.65V373.363l167.214,4.162Z" transform="translate(25.123 79.337)"/>
          <path id="Path_31" data-name="Path 31" class="cls-6" d="M506.3,334.58V509.573a3.992,3.992,0,0,1-3.627,4.109l-180.544,5.306h0a3.974,3.974,0,0,1-3.768-4.11V334.58a3.98,3.98,0,0,1,3.721-4.109h180.5A3.98,3.98,0,0,1,506.3,334.58Z" transform="translate(-61.011 -48.393)"/>
          <path id="Path_32" data-name="Path 32" class="cls-11" d="M272.645,219.126H439.859V373.363l-167.214,4.162Z" transform="translate(-3.391 79.337)"/>
          <path id="Path_33" data-name="Path 33" class="cls-8" d="M738.632,366.4v13.525l-133.614,1.456-1.425.031-50.782.551-1.214.021-15.435.156H535.7l-94.089,1.03-154.45,1.7h-.132l-39.27.437-.422.01L72.847,387.207V371.6l178.108-1.384h.422l36.051-.291h.167l248.97-1.945h.255l.149-.01h.414l4.213-.031h1.284l65.514-.52,3.87-.021.862-.01Z" transform="translate(-53.215 150.015)"/>
          <ellipse id="Ellipse_1" data-name="Ellipse 1" class="cls-12" cx="48.355" cy="53.403" rx="48.355" ry="53.403" transform="translate(305.829 203.89)"/>
          <path id="Path_34" data-name="Path 34" class="cls-9" d="M263.473,631.26a1.394,1.394,0,0,1,.094-.364c.942-3.735,2.619-10.05,3.872-15.1.16-.624.311-1.238.452-1.821,1.385-5.691,4.079-19.018,5.577-27.331.528-2.923.942-5.2,1.027-6.346.188-1.758,3.024-9.28,6.236-17.926,2.252-6.076,4.71-12.714,6.51-18.311A68.96,68.96,0,0,0,290,533.817a5.846,5.846,0,0,0,0-2.216,16.781,16.781,0,0,1-.452-3.641h0c-.217-6.45,1.526-16.646,4.22-20.922,3.3-5.2,5.652-24.615,5.652-24.615s4.88.78,5.652-3.673a7.056,7.056,0,0,0,.094-1.457,8.506,8.506,0,0,0-.085-1.155c-.838-6.492,13.867-13.4,22.138-14.888a16.818,16.818,0,0,1,2.826-.291,23.638,23.638,0,0,0,5.888-1.5q1.319-.447,2.826-1.04c3.467-1.29,7.612-3,12.011-4.869,16.542-7.085,36.57-16.646,36.57-16.646.141-.739.3-1.446.48-2.143,2.007-8.9,7.725-16.208,15.4-19.695h0v-2.081c0-3.589-.141-7.283-.283-10.966,0-.718-.056-1.436-.094-2.154v-1.176c0-.728-.066-1.456-.1-2.174l-.17-.146a15.541,15.541,0,0,1-5.012-7.491c-1.177-3.527-1.451-7.46-2.242-11.184l-.17-.77a93.268,93.268,0,0,0-3.768-11.007c-2.082-5.639-3.683-11.444-5.276-17.322q-1.451-5.337-2.93-10.7l-1.488-5.452c-.283-1.04-.565-2.081-.782-3.121h0q-.158-.72-.245-1.457h0a11.453,11.453,0,0,1,.226-4.8q.549-1.595,1.243-3.121a8.765,8.765,0,0,0,.471-1.436h0q.046-.164.075-.333a6.468,6.468,0,0,0,.1-1.124,21.1,21.1,0,0,0-.49-4.047.08.08,0,0,1,0-.052q-.017-.142-.047-.281a29.171,29.171,0,0,1-.339-3.121,32.163,32.163,0,0,1,3.269-16.2l.179-.375a26.619,26.619,0,0,1,1.733-2.892h0a14.427,14.427,0,0,1,.942-1.269c-1.319,1.394-3.486.78-4.71-.718a3.765,3.765,0,0,1-.518-.78,4.143,4.143,0,0,1-.217-.468c-.047-.125-.085-.26-.123-.4-.659-2.549.49-5.264,2-7.335a17.906,17.906,0,0,1,5.407-4.89h0a3.521,3.521,0,0,1,.377-.218,15.274,15.274,0,0,1,2.487-1.1h0a13.125,13.125,0,0,1,1.536-.458l-3.495-.354-1.413-.146c1.439-6.3,6.375-10.879,12.247-11.351h1.017a10.038,10.038,0,0,1,1.479.135,4.688,4.688,0,0,1-2.5-4.5,12.759,12.759,0,0,0,8.657,3.184h.358q-.244-1.69-.32-3.4h0a38.1,38.1,0,0,1,0-4.64,7.5,7.5,0,0,0,6.387,2.351l-1.96-3.017a8.381,8.381,0,0,0,6.18,2.133l.452-.052a6.042,6.042,0,0,0,1.121-.239h.085c-.179-.25-.339-.51-.5-.78l-.056-.125a10.556,10.556,0,0,1-.942-2.174,7.437,7.437,0,0,1-.226-.905h0a9.99,9.99,0,0,1,.424-5.67c3.043,2.809,6.378,6.648,10.362,3.745s4.117-8.229,10.363-7.688a9.743,9.743,0,0,1,7.923,6.367,5.957,5.957,0,0,1,7.226-1.821,7.29,7.29,0,0,1,3.655,7.168c2.591-.718,5.379-1.425,7.866-.343s4.089,4.588,2.675,6.929a1.5,1.5,0,0,1-.132.208c-1.159,1.654-3.721,2.559-3.448,4.64l.4.312,1.225.978q7.207,5.743,14.037,12.069c2.336,2.164,4.823,4.765,4.983,8.146a9.9,9.9,0,0,1-.226,2.466h0c-.151.812-.358,1.623-.518,2.435a22.374,22.374,0,0,0-.32,6.294h0c.066.614.151,1.217.254,1.831,1.441,8.042,7.263,14.68,7.838,22.889v.583a20.424,20.424,0,0,1-.066,2.632c-.433,4.994-2.525,9.79-4.22,14.565-.1.291-.207.583-.3.874-3.269,9.363-5.153,19.341-6.594,29.3q-.7,5.3-1.884,10.5a29.085,29.085,0,0,1-4.8,10.851,15.9,15.9,0,0,1-3.165,3.121,17.107,17.107,0,0,1-2.5,1.467v.062c.1.635.188,1.269.292,1.9.056.333.1.666.16,1.04h0a.163.163,0,0,0,0,.062c.791,4.921,1.7,9.738,2.647,14.316l.48,2.278c11.87,4.734,13.273,14.43,13.358,18.144a11.081,11.081,0,0,1,0,1.488s17.9.52,24.964,6.242a18.547,18.547,0,0,0,4.249,2.393,72.9,72.9,0,0,0,8.714,3.007c1.517.437,3.1.864,4.71,1.28,2.826.718,5.822,1.415,8.714,2.081,7.715,1.717,14.979,3.121,18.662,4.161,8.789,2.455,28.893,23.742,28.893,23.742s2.355,21.474,4.71,24.605,6.594,14.139,6.594,14.139l15.581,30.6,6.594,12.87h4.239c.584,0,1.733.916,3.024,2.185,1.121,1.1,2.365,2.476,3.457,3.725l1.809,2.133,1.13,1.384s6.849.187,8.7,6.169c5.577-.177,12.426.229,17.221,2.6a12.984,12.984,0,0,1,1.884,1.124,9.023,9.023,0,0,1,3.891,5.888,9.552,9.552,0,0,1,.169,1.5c0,.593,0,1.186,0,1.769-.339,7.876-4.983,14.43-9.251,18.841l.3.593s-.141.375-.414,1.04c-.075.2-.169.416-.273.666h0c-.556,1.311-1.441,3.277-2.6,5.576a66.047,66.047,0,0,1-9.015,13.7l-.273.312-54.394.552-.16-.208-10.551-13.9-5.247-6.908-.16-.219-.151,1.654-.509,5.514-1.225,13.327-.066.666v.177l-.141,1.54.1-1.54h-.273l-100.8,1.04L306.213,630.75v.874h-.132v-.874l-42.157.5Z" transform="translate(-86.533 -95.567)"/>
          <path id="Path_35" data-name="Path 35" class="cls-12" d="M447.427,416.6s-93.734,12.485-84.785,0c3.241-4.515,4.136-17.895,3.957-33.136-.056-4.63-.207-9.426-.424-14.2-1.036-22.889-3.533-45.257-3.533-45.257s81.958-42.656,72.538-8.843c-3.768,13.66-2.534,32.845.33,50.854.838,5.254,1.809,10.4,2.826,15.294q3.725,17.891,9.091,35.29Z" transform="translate(-45.277 -53.094)"/>
          <path id="Path_36" data-name="Path 36" class="cls-8" d="M447.427,390.515s-93.734,12.485-84.785,0c3.241-4.515,4.136-17.895,3.957-33.136,14.291-6.742,32.472-1.717,32.472-1.717,19.143-4.213,31.417-3.392,39.265-.437q3.725,17.891,9.091,35.29Z" transform="translate(-45.277 -28.473)"/>
          <path id="Path_37" data-name="Path 37" class="cls-9" d="M306.075,572.272V571.4l165.443-1.987,100.8-1.04h.283l-.1,1.54.141-1.54h.179v-.177l1.291-13.993.49-5.3.151-1.654.132-1.384,5.822-21.442,5.822-21.411,4.9-18.03,7.48-27.549s-4.239-10.924-6.594-14.045-4.71-24.449-4.71-24.449-20.1-21.151-28.893-23.586c-3.683-1.04-10.956-2.424-18.681-4.162-2.892-.645-5.859-1.332-8.714-2.081-1.611-.406-3.194-.832-4.71-1.259a77.15,77.15,0,0,1-8.714-2.975,18.874,18.874,0,0,1-4.239-2.382c-6.924-5.608-24.277-6.242-24.945-6.242h0a.484.484,0,0,1,0-.073v-.094a11.784,11.784,0,0,0,0-1.311,9.211,9.211,0,0,0-.085-1.457,1.442,1.442,0,0,0-.066-.52c-.047-.375-.1-.77-.188-1.186a5.624,5.624,0,0,0-.113-.551,19.156,19.156,0,0,0-1.178-3.631c-.066-.166-.151-.343-.226-.51a19.314,19.314,0,0,0-1.6-2.736c-.122-.177-.254-.364-.4-.541a19.438,19.438,0,0,0-2.562-2.747c-.254-.219-.518-.447-.791-.655a4.432,4.432,0,0,0-.48-.374l-.839-.6-.782-.5c-.688-.416-1.413-.822-2.2-1.207-.245-.125-.509-.239-.772-.354s-.678-.291-1.027-.437h-.057l-.706-.312c-.537-.2-1.083-.375-1.658-.551l-.876-.25-.942-.239-.942-.218c-.942-.208-1.95-.4-3.005-.541l-1.074-.146-1.1-.125-1.14-.1-1.62-.1-1.884-.073a106.831,106.831,0,0,0-24.73,2.905,61.871,61.871,0,0,0-17.191-1.75h-.82l-.942.062h-.6l-1.215.125a8.215,8.215,0,0,0-1.225.156c-.405.062-.829.114-1.234.187l-.622.114c-.612.114-1.234.239-1.884.385q-.311.062-.622.156c-.82.2-1.639.437-2.449.707-.405.125-.81.271-1.215.427a6.132,6.132,0,0,0-.6.229l-.6.239-.593.26-.707.312c-.358.166-.707.343-1.055.531a6.407,6.407,0,0,0-.584.312c-.188.114-.386.208-.565.323a26.314,26.314,0,0,0-5.85,4.557l-.48.51-.471.531c-.16.177-.311.364-.462.551a24.493,24.493,0,0,0-1.715,2.341c-.151.219-.292.437-.433.666a28.565,28.565,0,0,0-1.62,3.038c-.122.25-.236.51-.349.759a36.277,36.277,0,0,0-1.884,5.462q-.264,1.04-.481,2.081s-19.943,9.717-36.486,16.75c-4.4,1.873-8.544,3.569-12.011,4.848-1.008.375-1.95.718-2.826,1.04a23.175,23.175,0,0,1-5.888,1.5,16.827,16.827,0,0,0-2.826.291c-7.6,1.363-20.631,7.283-22.053,13.223a4.224,4.224,0,0,0-.094,1.457v.114c.942,7.283-5.652,6.242-5.652,6.242s-2.355,19.247-5.652,24.449c-2.383,3.745-4.013,12.1-4.22,18.4h0a22.472,22.472,0,0,0,.414,5.857v.146c.377,1.394-.528,5.2-2.063,10.081-1.668,5.358-4.1,12.016-6.434,18.3-3.523,9.488-6.839,18.1-7.047,20-.085.843-.33,2.351-.669,4.3-1.375,7.928-4.428,23.024-5.935,29.131-1.121,4.557-2.751,10.8-3.872,15.086a1.583,1.583,0,0,1-.094.364L306,571.4v.874h.132Z" transform="translate(-81.438 -36.215)"/>
          <path id="Path_38" data-name="Path 38" class="cls-8" d="M305.835,417.152s53.7,30.691,73.009,27.05Z" transform="translate(-60.204 0.707)"/>
          <path id="Path_39" data-name="Path 39" class="cls-8" d="M385.48,408.913s52.284,18.727,69.712,21.328S385.48,408.913,385.48,408.913Z" transform="translate(-38.351 -2.753)"/>
          <path id="Path_40" data-name="Path 40" class="cls-8" d="M455.132,376.178c-27.319,5.556-78.755,4.359-100.988,3.516,8.149-32.252,47.884-21.286,47.884-21.286C451.213,347.568,454.981,370.061,455.132,376.178Z" transform="translate(-48.019 -26.696)"/>
          <path id="Path_41" data-name="Path 41" class="cls-9" d="M455.132,374.805c-27.319,5.556-78.755,4.359-100.988,3.516,8.149-32.252,47.884-21.286,47.884-21.286C451.213,346.195,454.981,368.688,455.132,374.805Z" transform="translate(-48.019 -27.309)"/>
          <path id="Path_42" data-name="Path 42" class="cls-12" d="M533.44,461.924s32.18-5.462,32.812,10.144-16.411,26.509-16.411,26.509Z" transform="translate(4.496 18.868)"/>
          <path id="Path_43" data-name="Path 43" class="cls-8" d="M435.362,366.017a41.845,41.845,0,0,1-4.239,1.81c-10.155,3.87-20.4,7.772-31.088,9.187s-21.912.166-31.238-5.722a27,27,0,0,1-2.826-2.029c-1.036-22.889-3.533-45.257-3.533-45.257s81.958-42.656,72.538-8.843C431.226,328.823,432.5,348.008,435.362,366.017Z" transform="translate(-44.712 -51.75)"/>
          <path id="Path_44" data-name="Path 44" class="cls-5" d="M390.748,255.091a8.276,8.276,0,0,1-7.838-1.821l1.96,3.007a7.52,7.52,0,0,1-6.387-2.341,39.116,39.116,0,0,0,.3,8.063,12.82,12.82,0,0,1-9.006-3.121,4.667,4.667,0,0,0,2.487,4.484c-6.737-.889-13.026,3.879-14.7,11.143l4.917.5a17.222,17.222,0,0,0-9.835,6.627c-1.507,2.081-2.656,4.744-2,7.283s3.844,4.162,5.577,2.351a31.286,31.286,0,0,0-5.747,23.711,16.567,16.567,0,0,1,.433,5.472c-.311,1.717-1.291,3.2-1.781,4.879-.942,3.038-.047,6.336.791,9.363l4.418,16.043c1.6,5.795,3.194,11.6,5.285,17.208a91.088,91.088,0,0,1,3.768,10.934c1.187,5.035,1.234,10.55,3.768,14.95a19.51,19.51,0,0,0,6.764,6.586c9.317,5.889,20.574,7.137,31.238,5.722s20.895-5.316,31.041-9.187a27.878,27.878,0,0,0,6.444-3.121c7.018-5.077,8.582-15.46,9.891-24.605,1.46-10.2,3.41-20.371,6.868-29.963,2.054-5.712,4.71-11.507,4.258-17.624-.575-8.125-6.4-14.711-7.838-22.7a21.791,21.791,0,0,1,.066-8.084,20.12,20.12,0,0,0,.744-4.89c-.16-3.35-2.647-5.93-4.983-8.084q-7.6-7.012-15.694-13.255c-.273-2.081,2.289-2.976,3.448-4.619,1.639-2.32-.057-6-2.544-7.085s-5.275-.375-7.866.343a7.006,7.006,0,0,0-3.647-7.136,5.822,5.822,0,0,0-7.234,1.819,9.733,9.733,0,0,0-7.932-6.326c-6.246-.541-6.368,4.734-10.363,7.636s-7.291-.926-10.363-3.714A10.477,10.477,0,0,0,390.748,255.091Z" transform="translate(-50.023 -80.279)"/>
          <path id="Path_45" data-name="Path 45" class="cls-9" d="M575.7,515.726s-.839,2.206-2.383,5.4a72.534,72.534,0,0,1-8.478,13.7l-.254.3h-1.526l-54.394.551h-1.3l-.16-.208-10.551-13.827-3.975-5.212-.16-.218-.339-.437-.188-.25-.245-.323-7.734-10.133,2.826-13,4.814-21.911.122-.531.942-4.162.669-3.121,2.242-10.175,7.687-35.009,13.66,7.8,14.4,28.09,7.734,15.086h4.239c.8,0,2.638,1.706,4.484,3.673.659.7,1.319,1.436,1.884,2.081,1.677,1.914,3.005,3.558,3.005,3.558s6.868.166,8.714,6.138a7.858,7.858,0,0,1,.235.884,44.686,44.686,0,0,0,2.383,6.825c1.215,2.924,2.741,6.242,4.286,9.561,2.873,6.086,5.794,11.881,6.868,13.983l.132.26Z" transform="translate(-12.465 -3.722)"/>
          <path id="Path_46" data-name="Path 46" class="cls-8" d="M565.272,455.325l-.094,1.488v.1l-.16,2.393-1.253,19.258-1.517,23.2-.433,6.534-.942,13.983v.177l-100.8,1.04-165.415,1.977v.874h-.132v-1.165l.424-14.94.81-29.193.7-24.751.066-2.466a11.458,11.458,0,0,1,3.318-7.846,9.341,9.341,0,0,1,7.44-2.734c4.446.416,10.221.926,17.126,1.467l2.826.229c39.877,3.059,113.574,7.012,187.939,2.081,1.564-.094,3.137-.2,4.71-.322,11.531-.8,23.052-1.831,34.46-3.121a9.369,9.369,0,0,1,7.933,3.025,11.606,11.606,0,0,1,2.994,8.659Z" transform="translate(-70.9 9.705)"/>
          <path id="Path_47" data-name="Path 47" class="cls-5" d="M294.6,524.926v-.874l165.443-1.987,100.8-1.04h.283v-.177l.942-13.983.405-6.242L564.02,477.1l1.215-18.623v-.458a12.186,12.186,0,0,0-.1-2.57.343.343,0,0,0,0-.1,11.415,11.415,0,0,0-1.884-4.827,9.528,9.528,0,0,0-8.874-4.162c-11.408,1.29-22.93,2.32-34.46,3.121-1.573.125-3.146.229-4.71.323-74.365,4.879-148.062.926-187.939-2.081l-2.826-.229c-6.905-.541-12.68-1.04-17.126-1.467-5.066-.472-9.637,3.359-10.589,8.875a12.593,12.593,0,0,0-.17,1.706l-.641,23.055-.876,29.2-.415,14.94v1.165Z" transform="translate(-70.876 11.131)"/>
          <path id="Path_48" data-name="Path 48" class="cls-8" d="M565.519,458.533l-1.159,15.949-1.724,23.773-.433,5.951-.942,13.327-.057.666v.177h0l-.141,1.54.1-1.54h-.273l-100.8,1.04-165.471,1.977V521.1l.462-14.94.942-29.193.6-19.4a6.769,6.769,0,0,1,2.883-5.462,5.451,5.451,0,0,1,3.561-.936c1.978.177,4.409.385,7.244.614,4.607.375,10.287.812,16.9,1.269,12.247.853,27.611,1.769,45.218,2.518,48.987,2.081,115.119,2.778,177.935-3.3,2.826-.271,5.746-.572,8.6-.874a5.422,5.422,0,0,1,3.278.687,4.82,4.82,0,0,1,.81.562,6.3,6.3,0,0,1,1.884,2.559,3.942,3.942,0,0,1,.235.635A7.165,7.165,0,0,1,565.519,458.533Z" transform="translate(-70.885 13.79)"/>
          <path id="Path_49" data-name="Path 49" class="cls-8" d="M271.2,465.42v3.319a6.46,6.46,0,0,1-3.3,5.764l-37.776.8a6.438,6.438,0,0,1-3.363-5.795v-3.121Z" transform="translate(-81.398 21.146)"/>
          <path id="Path_50" data-name="Path 50" class="cls-5" d="M218.364,357.053l-49.222,1.04v-9.02l49.222-1.04Z" transform="translate(-27.87 140.551)"/>
          <path id="Path_51" data-name="Path 51" class="cls-8" d="M218.364,357.053l-49.222,1.04v-9.02l49.222-1.04Z" transform="translate(-27.87 140.551)"/>
          <path id="Path_52" data-name="Path 52" class="cls-5" d="M219.737,357.053l-49.222,1.04v-9.02l49.222-1.04Z" transform="translate(-27.49 140.551)"/>
          <g id="Group_2" data-name="Group 2" class="cls-3" transform="translate(299.062 166.699)">
            <path id="Path_53" data-name="Path 53" d="M380.149,249.78a10.7,10.7,0,0,1-1.78-4.515,10.85,10.85,0,0,0,.4,4.786A7.757,7.757,0,0,0,380.149,249.78Z" transform="translate(-338.128 -245.264)"/>
            <path id="Path_54" data-name="Path 54" d="M371.012,254.112q-.266-1.913-.348-3.849c0,1.28,0,2.57,0,3.86Z" transform="translate(-340.955 -242.689)"/>
            <path id="Path_55" data-name="Path 55" d="M426.892,278.686a20.935,20.935,0,0,1,.339-2.757,20.512,20.512,0,0,0,.754-4.879,7.035,7.035,0,0,0-.151-1.1c-.16.957-.414,1.914-.6,2.861a21.944,21.944,0,0,0-.339,5.878Z" transform="translate(-320.058 -232.545)"/>
            <path id="Path_56" data-name="Path 56" d="M412.6,256.293l1.027.822a19.234,19.234,0,0,0,2.421-2.31,4.155,4.155,0,0,0,.358-3.787,3.2,3.2,0,0,1-.358.666C414.888,253.328,412.326,254.233,412.6,256.293Z" transform="translate(-325.36 -242.299)"/>
            <path id="Path_57" data-name="Path 57" d="M356.4,261.1a13.67,13.67,0,0,0-.82,2.372,16.149,16.149,0,0,1,4.71-1.966Z" transform="translate(-346.568 -237.102)"/>
            <path id="Path_58" data-name="Path 58" d="M366.127,254.069a13.924,13.924,0,0,1-1.771-1.28,4.867,4.867,0,0,0,.085,1.228,10.121,10.121,0,0,1,1.686.052Z" transform="translate(-343.305 -241.387)"/>
            <path id="Path_59" data-name="Path 59" d="M463.937,294.088c-.386,5.046-2.515,9.9-4.239,14.69-3.457,9.592-5.407,19.767-6.868,29.974-1.309,9.145-2.826,19.528-9.892,24.595a26.979,26.979,0,0,1-6.434,3.121c-10.155,3.881-20.4,7.772-31.088,9.187s-21.912.177-31.238-5.712a19.579,19.579,0,0,1-6.764-6.586c-2.515-4.4-2.562-9.915-3.768-14.95a91.24,91.24,0,0,0-3.768-10.945c-2.082-5.6-3.683-11.444-5.275-17.2q-2.214-8.021-4.418-16.053a32.609,32.609,0,0,1-1.074-4.942c-.367,2.663.349,5.452,1.074,8.063q2.2,8.042,4.418,16.053c1.592,5.795,3.194,11.6,5.275,17.2a91.235,91.235,0,0,1,3.768,10.945c1.187,5.035,1.234,10.549,3.768,14.95a19.578,19.578,0,0,0,6.764,6.586c9.326,5.889,20.574,7.127,31.238,5.712s20.895-5.306,31.088-9.187a26.977,26.977,0,0,0,6.434-3.121c7.018-5.067,8.582-15.45,9.891-24.595,1.46-10.206,3.41-20.381,6.868-29.974,2.054-5.7,4.71-11.5,4.258-17.624C463.956,294.213,463.937,294.15,463.937,294.088Z" transform="translate(-349.011 -220.106)"/>
            <path id="Path_60" data-name="Path 60" d="M350.822,294.5v-.114a16.028,16.028,0,0,0-.433-5.462,30.434,30.434,0,0,1-.367-3.454,31.379,31.379,0,0,0,.367,6.575C350.539,292.858,350.709,293.68,350.822,294.5Z" transform="translate(-348.65 -224.546)"/>
            <path id="Path_61" data-name="Path 61" d="M353.584,276.728a29.029,29.029,0,0,1,2.459-3.818c-1.724,1.821-4.908.2-5.577-2.33a6.678,6.678,0,0,0,0,3.121,4.3,4.3,0,0,0,3.118,3.027Z" transform="translate(-348.539 -232.22)"/>
          </g>
          <path id="Path_62" data-name="Path 62" class="cls-8" d="M524.531,450.8s2.986,11.965,0,22.368S524.531,450.8,524.531,450.8Z" transform="translate(3.2 13.61)"/>
          <path id="Path_63" data-name="Path 63" class="cls-8" d="M534.124,458.849s1.253,15.19-1.573,17.884S534.124,458.849,534.124,458.849Z" transform="translate(5.572 17.76)"/>
          <line id="Line_1" data-name="Line 1" class="cls-13" y1="1.04" x2="95.722" transform="translate(104.903 326.486)"/>
          <line id="Line_2" data-name="Line 2" class="cls-13" y1="1.03" x2="95.722" transform="translate(104.903 338.902)"/>
          <line id="Line_3" data-name="Line 3" class="cls-13" y1="1.04" x2="95.722" transform="translate(104.903 351.307)"/>
        </g>
      </g>
    </g>
  </g>
</svg>
