<svg xmlns="http://www.w3.org/2000/svg" xmlns:xlink="http://www.w3.org/1999/xlink" width="861" height="615" viewBox="0 0 861 615">
  <defs>
    <style>
      .cls-1 {
        clip-path: url(#clip-Rebuilt);
      }

      .cls-2 {
        fill: #3f3d56;
      }

      .cls-3 {
        opacity: 0.1;
      }

      .cls-4 {
        fill: #2f2e41;
      }

      .cls-5 {
        fill: #f2f2f2;
      }

      .cls-6 {
        fill: #fb503b;
      }

      .cls-7 {
        fill: #ffb9b9;
      }

      .cls-8 {
        fill: #d0cde1;
      }

      .cls-9 {
        fill: #e5989b;
      }

      .cls-10 {
        fill: #4dba87;
      }

      .cls-11 {
        fill: #435466;
      }
    </style>
    <clipPath id="clip-Rebuilt">
      <rect width="861" height="615"/>
    </clipPath>
  </defs>
  <g id="Rebuilt" class="cls-1">
    <g id="undraw_laravel_and_vue_59tp" transform="translate(107.192 38.835)">
      <path id="Path_140" data-name="Path 140" class="cls-2" d="M813.941,730.795c0,32.463-141.659,92.848-320.1,92.848S168.5,767,168.5,734.539s146.9-28.453,325.341-28.453S813.941,698.333,813.941,730.795Z" transform="translate(-168.5 -285.227)"/>
      <path id="Path_141" data-name="Path 141" class="cls-3" d="M813.941,730.795c0,32.463-141.659,92.848-320.1,92.848S168.5,767,168.5,734.539s146.9-28.453,325.341-28.453S813.941,698.333,813.941,730.795Z" transform="translate(-168.5 -285.227)"/>
      <ellipse id="Ellipse_20" data-name="Ellipse 20" class="cls-2" cx="323.095" cy="58.779" rx="323.095" ry="58.779" transform="translate(0 390.158)"/>
      <path id="Path_142" data-name="Path 142" class="cls-4" d="M594.859,440.238v157.2l26.295,42.853,2,3.259H726.907L729,440.238Z" transform="translate(-149.445 -191.205)"/>
      <path id="Path_143" data-name="Path 143" class="cls-3" d="M594.859,440.238v157.2l26.295,42.853,1.614-200.053Z" transform="translate(-149.445 -191.205)"/>
      <path id="Path_144" data-name="Path 144" class="cls-4" d="M215.34,434.639v157.2l-26.295,42.853-2,3.26H83.291l-2.1-203.313Z" transform="translate(-20.398 -189.799)"/>
      <path id="Path_145" data-name="Path 145" class="cls-3" d="M250.984,434.639v157.2l-26.295,42.853-1.614-200.053Z" transform="translate(-56.043 -189.799)"/>
      <path id="Path_146" data-name="Path 146" class="cls-4" d="M626.825,419.891v9.432H63V415.7l52.4-27.248H580.713Z" transform="translate(-15.827 -178.195)"/>
      <path id="Path_147" data-name="Path 147" class="cls-3" d="M626.825,429.034v9.432H63V424.842Z" transform="translate(-15.827 -187.337)"/>
      <path id="Path_148" data-name="Path 148" class="cls-3" d="M158.816,490.963H133.664l-10.48-7.336h47.16Z" transform="translate(-30.947 -202.106)"/>
      <path id="Path_149" data-name="Path 149" class="cls-3" d="M158.816,531.552H133.664l-10.48-7.337h47.16Z" transform="translate(-30.947 -212.303)"/>
      <path id="Path_150" data-name="Path 150" class="cls-3" d="M158.816,588.937H133.664l-10.48-7.337h47.16Z" transform="translate(-30.947 -226.719)"/>
      <path id="Path_151" data-name="Path 151" class="cls-3" d="M158.816,646.321H133.664l-10.48-7.336h47.16Z" transform="translate(-30.947 -241.136)"/>
      <path id="Path_152" data-name="Path 152" class="cls-3" d="M680.567,496.561h25.152l10.48-7.336h-47.16Z" transform="translate(-168.082 -203.512)"/>
      <path id="Path_153" data-name="Path 153" class="cls-3" d="M680.567,537.15h25.152l10.48-7.336h-47.16Z" transform="translate(-168.082 -213.709)"/>
      <path id="Path_154" data-name="Path 154" class="cls-3" d="M680.567,594.534h25.152L716.2,587.2h-47.16Z" transform="translate(-168.082 -228.126)"/>
      <path id="Path_155" data-name="Path 155" class="cls-3" d="M680.567,651.92h25.152l10.48-7.337h-47.16Z" transform="translate(-168.082 -242.542)"/>
      <path id="Path_156" data-name="Path 156" class="cls-2" d="M696.682,389.618l-3.5,22.319s-17.21,9.143-5.109,9.412,69.108,0,69.108,0,11.025,0-6.454-9.68l-3.5-23.395Z" transform="translate(-297.949 -205.588)"/>
      <path id="Path_157" data-name="Path 157" class="cls-3" d="M685.644,421.107a47.6,47.6,0,0,1,7.543-4.993l3.5-22.319,50.554.048,3.5,22a45.88,45.88,0,0,1,8.078,5.316c2.245-.512,4.7-2.416-8.078-9.492l-3.5-23.395-50.554,1.345-3.5,22.319S678.726,419.621,685.644,421.107Z" transform="translate(-297.95 -205.587)"/>
      <rect id="Rectangle_42" data-name="Rectangle 42" class="cls-2" width="227.761" height="158.653" rx="10.695" transform="translate(309.86 28.47)"/>
      <rect id="Rectangle_43" data-name="Rectangle 43" class="cls-5" width="212.434" height="118.856" transform="translate(317.523 36.94)"/>
      <circle id="Ellipse_21" data-name="Ellipse 21" class="cls-5" cx="1.345" cy="1.345" r="1.345" transform="translate(422.396 31.831)"/>
      <path id="Path_158" data-name="Path 158" class="cls-2" d="M810.086,364.931v13.908a8.007,8.007,0,0,1-8.009,8.008H590.332a8.007,8.007,0,0,1-8.008-8.009V364.931Z" transform="translate(-272.464 -199.723)"/>
      <circle id="Ellipse_22" data-name="Ellipse 22" class="cls-5" cx="5.109" cy="5.109" r="5.109" transform="translate(418.631 171.124)"/>
      <path id="Path_159" data-name="Path 159" class="cls-2" d="M506.741,411.948v2.69H362.071v-2.151l.2-.538,3.566-9.68H503.783Z" transform="translate(-90.963 -181.666)"/>
      <path id="Path_160" data-name="Path 160" class="cls-2" d="M784.508,445.216c-.263,1.127-1.259,2.315-3.507,3.439-8.067,4.034-24.47-1.076-24.47-1.076s-12.638-2.151-12.638-7.8a10.108,10.108,0,0,1,1.108-.659c3.392-1.794,14.637-6.222,34.577.188a8.315,8.315,0,0,1,3.79,2.484,3.966,3.966,0,0,1,1.14,3.422Z" transform="translate(-313.055 -217.567)"/>
      <path id="Path_161" data-name="Path 161" class="cls-3" d="M784.88,445.216c-9.874,3.783-18.676,4.066-27.708-2.208a19.838,19.838,0,0,0-11.8-3.886c3.392-1.794,14.637-6.222,34.577.187a8.315,8.315,0,0,1,3.79,2.484,3.964,3.964,0,0,1,1.14,3.422Z" transform="translate(-313.427 -217.567)"/>
      <ellipse id="Ellipse_23" data-name="Ellipse 23" class="cls-5" cx="3.496" cy="1.076" rx="3.496" ry="1.076" transform="translate(455.577 223.291)"/>
      <path id="Path_162" data-name="Path 162" class="cls-3" d="M506.741,415.2v2.69H362.071v-2.151l.2-.538Z" transform="translate(-90.963 -184.914)"/>
      <path id="Path_163" data-name="Path 163" class="cls-6" d="M780.709,251.415c-1.141-1.141-15.789-19.594-18.262-22.638-2.663-3.044-3.8-2.473-5.517-2.283s-20.165,3.424-22.258,3.615c-2.093.38-3.424,1.141-2.093,3.044,1.142,1.712,13.317,18.833,15.98,22.828l-48.51,11.6-38.428-64.49c-1.522-2.283-1.9-3.044-5.327-2.854s-30.247,2.473-32.15,2.473c-1.9.19-4,.951-2.093,5.517s32.34,70.007,33.1,71.909,3.044,4.946,8.18,3.8c5.326-1.332,23.589-6.088,33.672-8.751,5.326,9.512,15.98,28.916,18.073,31.769,2.664,3.8,4.566,3.044,8.561,1.9,3.234-.951,49.842-17.692,51.934-18.643s3.425-1.522,1.9-3.615c-1.142-1.522-13.317-18.072-19.784-26.633,4.375-1.141,20.165-5.327,21.877-5.9,1.9-.571,2.283-1.522,1.141-2.663ZM692.63,269.487c-.571.19-27.775,6.658-29.106,7.039-1.522.38-1.522.19-1.522-.38-.381-.571-32.34-66.773-32.911-67.534-.381-.761-.381-1.522,0-1.522s25.682-2.283,26.442-2.283c.951,0,.761.19,1.141.761,0,0,35.574,61.446,36.145,62.4C693.581,268.917,693.2,269.3,692.63,269.487Zm76.475,14.268c.38.761.951,1.141-.571,1.522-1.331.571-45.847,15.6-46.8,15.98s-1.521.571-2.663-1.141-15.6-26.633-15.6-26.633l47.369-12.365c1.141-.38,1.522-.571,2.283.571.76,1.332,15.6,21.5,15.98,22.067Zm3.043-33.482c-1.141.19-18.453,4.566-18.453,4.566l-14.268-19.4c-.38-.571-.76-1.141.191-1.332s17.121-3.044,17.882-3.234,1.331-.38,2.282.951c.951,1.141,13.126,16.741,13.7,17.311S773.29,250.083,772.149,250.273Z" transform="translate(-282.257 -158.341)"/>
      <circle id="Ellipse_24" data-name="Ellipse 24" class="cls-7" cx="28.638" cy="28.638" r="28.638" transform="translate(266.856 7.487)"/>
      <path id="Path_164" data-name="Path 164" class="cls-7" d="M534.957,210.4v45.218h46.725s-6.029-37.682-3.014-48.986Z" transform="translate(-260.564 -159.953)"/>
      <path id="Path_165" data-name="Path 165" class="cls-8" d="M607.931,280.623s-44.464-21.855-44.464-23.362-4.522-11.3-7.536-11.3-28.638-8.29-42.957,3.768l-1.507,9.8L456.451,295.7l15.073,55.015s9.8,10.551,6.783,18.087,2.261,45.972,2.261,45.972L598.887,411V359.754s3.768-12.058,6.029-15.826,0-15.073,0-15.073L623,306.246S620.743,285.144,607.931,280.623Z" transform="translate(-240.842 -169.135)"/>
      <path id="Path_166" data-name="Path 166" class="cls-3" d="M454.228,331.78l3.391-18.464s-19.594,85.161-17.333,94.958,18.841,24.87,21.1,25.623,23.363-64.812,23.363-64.812Z" transform="translate(-236.735 -186.756)"/>
      <path id="Path_167" data-name="Path 167" class="cls-8" d="M463.386,310.3l-12.812,2.261s-19.594,85.161-17.333,94.958,18.841,24.87,21.1,25.623,23.363-64.812,23.363-64.812Z" transform="translate(-234.965 -185.997)"/>
      <path id="Path_168" data-name="Path 168" class="cls-3" d="M657.338,339.842l6.406-12.435s9.044,85.161,3.015,93.45-29.878,11.392-29.878,11.392l-.267-61.885Z" transform="translate(-286.103 -190.296)"/>
      <path id="Path_169" data-name="Path 169" class="cls-8" d="M659.985,314.323l9.8,9.8s9.044,85.161,3.015,93.451-29.878,11.392-29.878,11.392l-.267-61.885Z" transform="translate(-287.621 -187.009)"/>
      <path id="Path_170" data-name="Path 170" class="cls-2" d="M461.712,486.711s-21.855-8.29-25.624,7.536,9.043,86.668,9.043,86.668,8.29,53.508,13.565,55.015,28.638,2.261,32.406-4.521-11.3-76.118-11.3-76.118l87.421-1.507s-5.275,60.291-8.29,65.566-3.015,23.362,0,23.362,36.174-1.507,38.435-6.029,15.073-106.262,15.073-106.262,10.551-35.421-1.507-33.16S461.712,486.711,461.712,486.711Z" transform="translate(-235.552 -229.773)"/>
      <path id="Path_171" data-name="Path 171" class="cls-4" d="M632.79,682.918s7.537-5.275,11.3,0,5.275,11.3-11.3,20.348-29.391,6.783-29.391,5.275V686.687Z" transform="translate(-277.759 -279.022)"/>
      <path id="Path_172" data-name="Path 172" class="cls-4" d="M463.913,679.9s-7.536-5.275-11.3,0-5.276,11.3,11.3,20.348,29.392,6.783,29.392,5.276V683.667Z" transform="translate(-239.26 -278.263)"/>
      <path id="Path_173" data-name="Path 173" class="cls-4" d="M552.461,144.307a24.218,24.218,0,0,0-8.411,1.2,32.51,32.51,0,0,0-5.992,3.17l-12.644,7.863a5.921,5.921,0,0,0-3.569,5.518l-1.58,11.832c-.4,2.986-.766,6.179.57,8.879,1.116,2.253,3.243,3.8,4.993,5.6a20.556,20.556,0,0,1,5.418,10.528c.9,4.94.326,10.889,4.235,14.042,2.117,1.707,5,2.03,7.717,2.189a115.162,115.162,0,0,0,22.239-.856,8.851,8.851,0,0,0,3.36-.942,9.228,9.228,0,0,0,2.948-3.505c2.823-4.807,5.734-9.92,5.7-15.5-.015-2.758-.721-5.72.6-8.139a31.766,31.766,0,0,1,2.274-2.954c1.64-2.3,1.959-5.264,2.226-8.079.853-8.992-.039-15.834-6.666-22.168C569.7,147.077,560.9,144.362,552.461,144.307Z" transform="translate(-256.781 -144.293)"/>
      <path id="Path_174" data-name="Path 174" class="cls-4" d="M292.5,569.7,267.346,697.56h12.576l24.1-125.76Z" transform="translate(-67.165 -223.731)"/>
      <path id="Path_175" data-name="Path 175" class="cls-4" d="M408.708,582.293l15.72,146.72h10.48L425.476,578.1Z" transform="translate(-102.679 -225.84)"/>
      <path id="Path_176" data-name="Path 176" class="cls-4" d="M466.093,577.4,488.1,674.863h10.48L477.621,575.3Z" transform="translate(-117.096 -225.137)"/>
      <path id="Path_177" data-name="Path 177" class="cls-4" d="M353.068,578.1l-3.144,77.553h8.384L364.6,578.1Z" transform="translate(-87.911 -225.84)"/>
      <path id="Path_178" data-name="Path 178" class="cls-9" d="M444.671,549S427.9,436.867,475.063,433.723s114.232,0,114.232,0,38.776-3.144,27.248,115.28c0,0,10.48,34.584-83.84,31.44S444.671,549,444.671,549Z" transform="translate(-237.155 -216.655)"/>
      <path id="Path_179" data-name="Path 179" class="cls-9" d="M1002.077,634.4c0,19.554-11.625,26.382-25.965,26.382s-25.964-6.828-25.964-26.382,25.964-44.431,25.964-44.431S1002.077,614.846,1002.077,634.4Z" transform="translate(-364.872 -256.259)"/>
      <path id="Path_180" data-name="Path 180" class="cls-2" d="M811.825,604.783l11.066-20.246-11.025,17.678.12-7.358,7.627-14.648-7.6,12.7.215-13.235,8.168-11.661-8.134,9.58.135-24.268-.808,30.75-8.271-12.66,8.171,15.254-.773,14.781-.023-.393-9.573-13.375,9.544,14.762-.1,1.848-.017.028.008.152L808.6,624.2h2.623l.314-1.594,9.521-14.726-9.5,13.27Z" transform="translate(-201.265 -219.616)"/>
      <path id="Path_181" data-name="Path 181" class="cls-4" d="M825.4,689.379H794.445l-8-45.216H831.66Z" transform="translate(-197.577 -242.437)"/>
      <rect id="Rectangle_44" data-name="Rectangle 44" class="cls-2" width="64.394" height="75.497" transform="translate(108.572 141.256)"/>
      <rect id="Rectangle_45" data-name="Rectangle 45" class="cls-5" width="44.41" height="52.067" transform="translate(118.564 152.971)"/>
      <path id="Path_182" data-name="Path 182" class="cls-10" d="M354.379,363.357l-4.51,7.811-4.51-7.811H330.343l19.527,33.823L369.4,363.357Z" transform="translate(-209.16 -199.328)"/>
      <path id="Path_183" data-name="Path 183" class="cls-11" d="M357,363.357l-4.51,7.811-4.51-7.811h-7.206L352.49,383.65l11.716-20.293Z" transform="translate(-211.78 -199.328)"/>
    </g>
  </g>
</svg>
